<?xml version="1.0" encoding="utf-8"?>
<!-- Generator: Adobe Illustrator 13.0.0, SVG Export Plug-In . SVG Version: 6.00 Build 14948)  -->
<!DOCTYPE svg PUBLIC "-//W3C//DTD SVG 1.1//EN" "http://www.w3.org/Graphics/SVG/1.1/DTD/svg11.dtd">
<svg version="1.1" id="CA1820_1" xmlns="http://www.w3.org/2000/svg" xmlns:xlink="http://www.w3.org/1999/xlink" x="0px" y="0px"
	 width="1280px" height="960px" viewBox="0 0 1280 960" enable-background="new 0 0 1280 960" xml:space="preserve">

<g id="FLOOR">
	<path fill="#E5E5E5" stroke="#B7B7B7" stroke-width="0.25" d="
	M524.205,556.987
	V412.251
	h-5.241
	l0.005-6.154
	c0 -1.942 -1.053 -3.645 -2.649 -4.569
	l-56.473-32.381
	c-0.837-0.479-1.75-0.702-2.615-0.696
	l-47.855-0.047
	l-0.053,56.163
	h-125.36
	v-14.515h-7.301
	h-93.915V395.49
	h-44.579v0.128
	l-6.751,0.012V598.8
	l4.709,0.017
	l-0.035,10.004
	c-0.006,2.048,0.995,3.862,2.551,4.985
	l43.842,25.372
	l0.854-1.509
	l5.494,3.13
	l-0.86,1.509
	l4.078,2.329
	c2.527,1.439,5.745,0.555,7.184-1.972
	l20.137-35.371
	c0.965-1.696,2.727-2.649,4.575-2.662
	l18.171-0.006
	v-8.985h133.089
	v13.971h23.4
	c1.937-0.007,3.621-1.054,4.54-2.646
	l12.069-21.219
	l16.825,9.56
	c0.843,0.485,1.504,1.164,1.942,1.931
	l12.561,21.523
	c1.457,2.504,4.662,3.353,7.172,1.913
	l49.751-28.613
	l-0.813-1.416
	l3.516-2.019
	l0.813,1.415
	l10.98-6.295
	c1.34-0.771,2.06-2.211,1.972-3.686
	l-0.076-1.163
	l-2.1,0.14
	l-0.223-3.364
	l6.669-0.474
	V556.987
	z"/>
</g>

<g id="POLY">
  <polygon points="
  524.205 556.987
  524.205 412.251
  518.964 412.251
  518.969 406.097
  518.969 406.097
  518.921 405.381
  518.78 404.694
  518.552 404.042
  518.243 403.431
  517.86 402.868
  517.407 402.359
  516.892 401.91
  516.32 401.528
  459.847 369.147
  459.847 369.147
  459.207 368.835
  458.55 368.617
  457.888 368.49
  457.232 368.451
  409.377 368.404
  409.324 424.567
  283.964 424.567
  283.964 410.052
  276.663 410.052
  182.748 410.052
  182.748 395.49
  138.169 395.49
  138.169 395.618
  131.418 395.63
  131.418 598.8
  136.127 598.817
  136.092 608.821
  136.092 608.821
  136.103 609.202
  136.136 609.577
  136.192 609.945
  136.269 610.306
  136.368 610.659
  136.486 611.002
  136.625 611.336
  136.782 611.66
  136.957 611.974
  137.15 612.275
  137.361 612.565
  137.587 612.841
  137.829 613.104
  138.086 613.353
  138.358 613.588
  138.643 613.806
  182.485 639.178
  183.339 637.669
  188.833 640.799
  187.973 642.308
  192.051 644.637
  192.051 644.637
  192.532 644.88
  193.026 645.069
  193.529 645.206
  194.037 645.291
  194.547 645.326
  195.055 645.312
  195.558 645.249
  196.051 645.138
  196.532 644.981
  196.996 644.779
  197.44 644.532
  197.861 644.242
  198.254 643.909
  198.617 643.534
  198.945 643.119
  199.235 642.665
  219.372 607.294
  219.372 607.294
  219.77 606.693
  220.234 606.164
  220.756 605.71
  221.328 605.332
  221.942 605.033
  222.588 604.815
  223.259 604.681
  223.947 604.632
  242.118 604.626
  242.118 595.641
  375.207 595.641
  375.207 609.612
  398.607 609.612
  398.607 609.612
  399.32 609.562
  400.004 609.42
  400.652 609.192
  401.259 608.883
  401.817 608.501
  402.322 608.05
  402.768 607.537
  403.147 606.966
  415.216 585.747
  432.041 595.307
  432.041 595.307
  432.638 595.706
  433.164 596.167
  433.613 596.681
  433.983 597.238
  446.544 618.761
  446.544 618.761
  446.837 619.211
  447.167 619.621
  447.532 619.991
  447.926 620.319
  448.347 620.604
  448.792 620.847
  449.255 621.044
  449.735 621.197
  450.227 621.303
  450.728 621.362
  451.234 621.373
  451.741 621.335
  452.247 621.247
  452.747 621.108
  453.238 620.917
  453.716 620.674
  503.467 592.061
  502.654 590.645
  506.17 588.626
  506.983 590.041
  517.963 583.746
  517.963 583.746
  518.436 583.427
  518.849 583.052
  519.199 582.63
  519.484 582.167
  519.703 581.671
  519.852 581.15
  519.93 580.61
  519.935 580.06
  519.859 578.897
  517.759 579.037
  517.536 575.673
  524.205 575.199
  524.205 556.987" />
</g>

</svg>
