<?xml version="1.0" encoding="UTF-8" standalone="no"?>
<svg xmlns="http://www.w3.org/2000/svg" xmlns:xlink="http://www.w3.org/1999/xlink" xmlns:jitters="http://www.semicolonproductions.com/jitters" viewBox="0.000000 0.000000 640.000000 960.000000" jitters:gridXSpacing="10.000000" jitters:gridYSpacing="10.000000" jitters:gridActive="no">
    <defs></defs>
    <path d="M 525.250000,564.899000 L 525.250000,397.910000 L 519.913000,397.910000 L 519.926000,391.644000 C 519.913000,389.768000 518.943000,387.975000 517.228000,386.987000L 459.733000,354.029000 C 458.970000,353.582000 458.053000,353.314000 457.071000,353.314000L 408.354000,353.272000 L 408.306000,410.928000 L 280.921000,410.928000 L 280.885000,395.753000 L 273.601000,395.753000 L 273.601000,411.589000 L 212.883000,411.589000 L 212.883000,433.857000 L 176.316000,433.857000 L 176.316000,424.406000 L 177.918000,423.477000 L 177.918000,414.204000 L 176.316000,413.275000 L 176.316000,409.570000 L 177.918000,408.641000 L 177.918000,399.380000 L 176.316000,398.451000 L 176.316000,379.911000 L 177.918000,378.981000 L 177.918000,369.720000 L 176.316000,368.791000 L 176.316000,359.488000 L 169.926000,348.458000 L 169.664000,348.613000 L 168.860000,347.219000 C 168.860000,347.213000 168.860000,347.207000 168.854000,347.207000C 167.389000,344.640000 168.276000,341.370000 170.843000,339.899000L 144.918000,354.818000 L 145.722000,356.206000 L 140.159000,359.434000 L 139.355000,358.040000 L 134.912000,360.613000 C 133.304000,361.559000 132.238000,363.287000 132.244000,365.258000L 132.268000,381.362000 L 125.389000,381.374000 L 125.389000,587.813000 L 130.189000,587.831000 L 130.153000,598.016000 C 129.963000,600.029000 130.916000,602.024000 132.744000,603.090000L 139.414000,606.955000 L 144.203000,598.546000 L 144.203000,584.776000 L 157.305000,584.776000 L 157.305000,589.708000 L 155.334000,589.708000 L 154.006000,592.024000 L 153.446000,592.024000 L 153.446000,593.810000 L 155.864000,593.810000 L 156.679000,592.380000 L 165.053000,592.380000 L 165.053000,598.907000 L 171.670000,598.914000 L 171.670000,597.014000 L 173.599000,593.667000 L 203.830000,611.123000 L 203.032000,612.522000 L 204.890000,613.593000 L 205.712000,612.205000 L 205.903000,612.313000 L 214.931000,596.453000 C 215.866000,594.827000 217.599000,593.743000 219.582000,593.743000L 238.086000,593.737000 L 238.074000,585.120000 L 373.564000,585.120000 L 373.564000,598.811000 L 397.392000,598.811000 C 399.256000,598.799000 401.038000,597.834000 402.014000,596.124000L 414.300000,574.518000 L 431.422000,584.255000 C 432.208000,584.696000 432.905000,585.357000 433.405000,586.215000L 446.185000,608.125000 C 447.674000,610.675000 450.938000,611.544000 453.494000,610.072000L 478.263000,595.821000 L 498.566000,584.141000 L 504.135000,580.950000 L 503.313000,579.502000 L 506.892000,577.454000 L 507.714000,578.895000 L 518.476000,572.487000 C 519.786000,571.736000 520.602000,570.306000 520.489000,568.734000L 520.412000,567.686000 L 518.048000,567.686000 L 518.048000,564.893000 L 525.250000,564.893000 L 525.250000,564.899000 Z M 176.132000,500.650000 L 176.061000,500.835000 L 175.948000,501.008000 L 175.805000,501.139000 L 175.632000,501.252000 L 175.447000,501.306000 L 175.244000,501.324000 L 173.487000,501.324000 L 173.290000,501.353000 L 173.088000,501.425000 L 172.915000,501.520000 L 172.760000,501.681000 L 172.659000,501.854000 L 172.588000,502.038000 L 172.314000,503.039000 L 172.004000,504.021000 L 171.629000,504.999000 L 171.218000,505.939000 L 170.741000,506.868000 L 170.217000,507.756000 L 169.657000,508.626000 L 169.044000,509.453000 L 168.383000,510.258000 L 167.686000,511.027000 L 166.942000,511.741000 L 166.173000,512.426000 L 165.358000,513.075000 L 164.512000,513.671000 L 163.642000,514.219000 L 162.743000,514.732000 L 161.808000,515.172000 L 160.855000,515.589000 L 159.878000,515.934000 L 158.896000,516.232000 L 157.877000,516.489000 L 156.864000,516.674000 L 155.834000,516.817000 L 154.810000,516.888000 L 153.780000,516.918000 L 152.732000,516.888000 L 151.708000,516.805000 L 150.678000,516.662000 L 149.665000,516.476000 L 148.659000,516.220000 L 148.462000,516.191000 L 148.260000,516.203000 L 148.063000,516.263000 L 147.891000,516.365000 L 147.736000,516.490000 L 147.617000,516.650000 L 147.206000,517.365000 L 147.075000,517.520000 L 146.921000,517.663000 L 146.748000,517.765000 L 146.545000,517.807000 L 146.331000,517.819000 L 146.134000,517.777000 L 145.932000,517.693000 L 145.134000,517.235000 L 155.783000,498.826000 L 147.761000,494.181000 L 137.113000,512.589000 L 136.315000,512.131000 L 136.143000,512.006000 L 136.012000,511.845000 L 135.917000,511.660000 L 135.857000,511.457000 L 135.857000,511.261000 L 135.887000,511.059000 L 135.970000,510.863000 L 137.298000,508.557000 L 137.387000,508.373000 L 137.429000,508.187000 L 137.429000,507.985000 L 137.387000,507.800000 L 137.298000,507.615000 L 136.774000,506.698000 L 136.315000,505.757000 L 135.886000,504.798000 L 135.529000,503.810000 L 135.214000,502.809000 L 134.970000,501.797000 L 134.773000,500.766000 L 134.630000,499.724000 L 134.541000,498.682000 L 134.511000,497.621000 L 134.529000,496.734000 L 134.612000,495.865000 L 134.743000,494.977000 L 134.928000,494.119000 L 135.155000,493.263000 L 135.441000,492.434000 L 135.774000,491.607000 L 136.144000,490.803000 L 136.573000,490.034000 L 136.674000,489.933000 L 136.805000,489.861000 L 136.942000,489.861000 L 137.073000,489.915000 L 137.490000,490.177000 L 137.919000,490.373000 L 138.372000,490.534000 L 138.830000,490.647000 L 139.319000,490.689000 L 139.790000,490.689000 L 140.260000,490.635000 L 140.730000,490.533000 L 141.177000,490.372000 L 141.618000,490.158000 L 142.017000,489.914000 L 142.392000,489.616000 L 142.732000,489.270000 L 143.036000,488.901000 L 143.292000,488.503000 L 143.495000,488.074000 L 143.668000,487.615000 L 143.763000,487.157000 L 143.823000,486.686000 L 143.823000,486.203000 L 143.781000,485.727000 L 143.680000,485.256000 L 143.519000,484.798000 L 143.322000,484.368000 L 143.280000,484.225000 L 143.292000,484.082000 L 143.364000,483.968000 L 143.495000,483.885000 L 144.323000,483.540000 L 145.181000,483.254000 L 146.050000,483.027000 L 146.938000,482.837000 L 147.837000,482.712000 L 148.736000,482.641000 L 149.641000,482.611000 L 150.540000,482.653000 L 151.439000,482.742000 L 152.327000,482.886000 L 153.215000,483.071000 L 154.085000,483.327000 L 154.930000,483.631000 L 155.770000,483.970000 L 156.574000,484.369000 L 157.360000,484.828000 L 158.116000,485.316000 L 158.843000,485.858000 L 159.534000,486.442000 L 160.189000,487.061000 L 160.802000,487.728000 L 161.373000,488.419000 L 161.903000,489.145000 L 162.385000,489.914000 L 162.832000,490.706000 L 163.231000,491.516000 L 163.332000,491.689000 L 163.487000,491.844000 L 163.659000,491.963000 L 163.862000,492.034000 L 164.076000,492.057000 L 170.991000,492.057000 L 171.205000,492.087000 L 171.408000,492.158000 L 171.580000,492.277000 L 172.224000,492.831000 L 172.837000,493.433000 L 173.391000,494.077000 L 173.921000,494.762000 L 174.392000,495.477000 L 174.821000,496.221000 L 175.196000,496.995000 L 175.524000,497.781000 L 175.798000,498.592000 L 176.012000,499.425000 L 176.167000,500.265000 L 176.179000,500.450000 L 176.132000,500.650000 Z M 204.034000,494.992000 L 203.861000,495.832000 L 203.647000,496.660000 L 203.379000,497.475000 L 203.051000,498.261000 L 202.664000,499.035000 L 202.235000,499.780000 L 201.764000,500.494000 L 201.234000,501.161000 L 200.662000,501.805000 L 200.060000,502.407000 L 199.405000,502.978000 L 199.233000,503.091000 L 199.030000,503.151000 L 198.827000,503.181000 L 192.925000,503.181000 L 192.740000,503.162000 L 192.555000,503.109000 L 192.382000,503.007000 L 192.239000,502.875000 L 192.126000,502.721000 L 191.584000,501.792000 L 191.471000,501.637000 L 191.322000,501.506000 L 191.155000,501.404000 L 190.983000,501.350000 L 190.780000,501.321000 L 183.818000,501.321000 L 183.603000,501.303000 L 183.407000,501.231000 L 183.234000,501.119000 L 182.591000,500.564000 L 181.977000,499.945000 L 181.406000,499.320000 L 180.888000,498.634000 L 180.406000,497.920000 L 179.977000,497.175000 L 179.602000,496.401000 L 179.274000,495.616000 L 178.988000,494.800000 L 178.774000,493.972000 L 178.619000,493.126000 L 178.607000,492.930000 L 178.631000,492.727000 L 178.702000,492.543000 L 178.821000,492.388000 L 178.976000,492.245000 L 179.149000,492.143000 L 179.334000,492.083000 L 179.531000,492.053000 L 188.637000,492.053000 L 188.839000,492.072000 L 189.012000,492.143000 L 189.179000,492.226000 L 189.328000,492.357000 L 189.441000,492.512000 L 189.983000,493.441000 L 190.096000,493.602000 L 190.239000,493.727000 L 190.412000,493.829000 L 190.597000,493.889000 L 190.782000,493.918000 L 203.116000,493.918000 L 203.319000,493.931000 L 203.504000,494.002000 L 203.677000,494.103000 L 203.820000,494.247000 L 203.933000,494.401000 L 204.004000,494.586000 L 204.034000,494.788000 L 204.034000,494.992000 Z M 334.433000,424.406000 L 334.462000,424.192000 L 334.533000,423.995000 L 334.635000,423.822000 L 334.789000,423.679000 L 334.962000,423.566000 L 335.164000,423.495000 L 335.361000,423.477000 L 349.583000,423.477000 L 349.798000,423.495000 L 349.983000,423.566000 L 350.173000,423.679000 L 350.316000,423.822000 L 350.430000,423.995000 L 350.500000,424.192000 L 350.513000,424.406000 L 350.513000,441.505000 L 350.483000,441.720000 L 350.411000,441.934000 L 350.287000,442.119000 L 350.133000,442.262000 L 349.930000,442.364000 L 349.715000,442.418000 L 349.501000,442.437000 L 348.399000,442.293000 L 347.315000,442.091000 L 346.225000,441.835000 L 345.170000,441.519000 L 344.128000,441.162000 L 343.098000,440.733000 L 342.097000,440.262000 L 341.126000,439.732000 L 340.180000,439.149000 L 339.281000,438.518000 L 338.393000,437.844000 L 337.547000,437.130000 L 336.749000,436.361000 L 335.992000,435.556000 L 335.278000,434.716000 L 334.604000,433.829000 L 334.521000,433.656000 L 334.461000,433.471000 L 334.432000,433.286000 L 334.432000,424.406000 L 334.433000,424.406000 Z M 231.906000,500.447000 L 231.876000,500.650000 L 231.804000,500.835000 L 231.691000,501.008000 L 231.548000,501.139000 L 231.376000,501.252000 L 231.191000,501.306000 L 230.988000,501.324000 L 218.654000,501.324000 L 218.469000,501.353000 L 218.284000,501.407000 L 218.112000,501.509000 L 217.969000,501.640000 L 217.856000,501.795000 L 217.314000,502.724000 L 217.201000,502.878000 L 217.052000,503.010000 L 216.885000,503.112000 L 216.712000,503.165000 L 216.509000,503.184000 L 207.403000,503.184000 L 207.207000,503.165000 L 207.022000,503.094000 L 206.849000,502.998000 L 206.694000,502.855000 L 206.575000,502.695000 L 206.503000,502.509000 L 206.479000,502.307000 L 206.491000,502.111000 L 206.646000,501.265000 L 206.860000,500.437000 L 207.146000,499.622000 L 207.473000,498.835000 L 207.848000,498.067000 L 208.277000,497.322000 L 208.759000,496.608000 L 209.277000,495.934000 L 209.849000,495.291000 L 210.462000,494.689000 L 211.106000,494.117000 L 211.278000,494.005000 L 211.475000,493.934000 L 211.689000,493.921000 L 218.651000,493.921000 L 218.854000,493.892000 L 219.027000,493.832000 L 219.194000,493.730000 L 219.343000,493.605000 L 219.456000,493.444000 L 219.998000,492.515000 L 220.111000,492.360000 L 220.254000,492.229000 L 220.427000,492.146000 L 220.612000,492.075000 L 220.797000,492.056000 L 226.699000,492.056000 L 226.901000,492.086000 L 227.104000,492.157000 L 227.277000,492.276000 L 227.932000,492.830000 L 228.534000,493.432000 L 229.106000,494.076000 L 229.636000,494.761000 L 230.106000,495.464000 L 230.535000,496.208000 L 230.922000,496.977000 L 231.250000,497.781000 L 231.518000,498.579000 L 231.732000,499.407000 L 231.905000,500.253000 L 231.905000,500.447000 L 231.906000,500.447000 Z M 259.778000,494.992000 L 259.606000,495.832000 L 259.391000,496.660000 L 259.123000,497.475000 L 258.795000,498.261000 L 258.408000,499.035000 L 257.979000,499.780000 L 257.508000,500.494000 L 256.978000,501.161000 L 256.406000,501.805000 L 255.804000,502.407000 L 255.149000,502.978000 L 254.977000,503.091000 L 254.774000,503.151000 L 254.572000,503.181000 L 248.670000,503.181000 L 248.486000,503.162000 L 248.301000,503.109000 L 248.128000,503.007000 L 247.985000,502.875000 L 247.872000,502.721000 L 247.330000,501.792000 L 247.217000,501.637000 L 247.069000,501.506000 L 246.902000,501.404000 L 246.729000,501.350000 L 246.527000,501.321000 L 239.565000,501.321000 L 239.350000,501.303000 L 239.154000,501.231000 L 238.981000,501.119000 L 238.338000,500.564000 L 237.724000,499.945000 L 237.152000,499.320000 L 236.634000,498.634000 L 236.152000,497.920000 L 235.723000,497.175000 L 235.348000,496.401000 L 235.020000,495.616000 L 234.734000,494.800000 L 234.520000,493.972000 L 234.365000,493.126000 L 234.353000,492.930000 L 234.376000,492.727000 L 234.448000,492.543000 L 234.567000,492.388000 L 234.722000,492.245000 L 234.895000,492.143000 L 235.080000,492.083000 L 235.277000,492.053000 L 244.383000,492.053000 L 244.585000,492.072000 L 244.758000,492.143000 L 244.925000,492.226000 L 245.074000,492.357000 L 245.187000,492.512000 L 245.729000,493.441000 L 245.842000,493.602000 L 245.985000,493.727000 L 246.158000,493.829000 L 246.343000,493.889000 L 246.528000,493.918000 L 258.862000,493.918000 L 259.065000,493.931000 L 259.250000,494.002000 L 259.423000,494.103000 L 259.566000,494.247000 L 259.679000,494.401000 L 259.750000,494.586000 L 259.780000,494.788000 L 259.780000,494.992000 L 259.778000,494.992000 Z M 287.651000,500.447000 L 287.621000,500.650000 L 287.549000,500.835000 L 287.436000,501.008000 L 287.293000,501.139000 L 287.120000,501.252000 L 286.935000,501.306000 L 286.732000,501.324000 L 274.398000,501.324000 L 274.213000,501.353000 L 274.028000,501.407000 L 273.855000,501.509000 L 273.712000,501.640000 L 273.599000,501.795000 L 273.057000,502.724000 L 272.944000,502.878000 L 272.795000,503.010000 L 272.628000,503.112000 L 272.456000,503.165000 L 272.253000,503.184000 L 263.147000,503.184000 L 262.950000,503.165000 L 262.766000,503.094000 L 262.593000,502.998000 L 262.438000,502.855000 L 262.319000,502.695000 L 262.247000,502.509000 L 262.223000,502.307000 L 262.235000,502.111000 L 262.390000,501.265000 L 262.604000,500.437000 L 262.890000,499.622000 L 263.217000,498.835000 L 263.592000,498.067000 L 264.021000,497.322000 L 264.503000,496.608000 L 265.021000,495.934000 L 265.593000,495.291000 L 266.206000,494.689000 L 266.849000,494.117000 L 267.022000,494.005000 L 267.219000,493.934000 L 267.433000,493.921000 L 274.395000,493.921000 L 274.598000,493.892000 L 274.770000,493.832000 L 274.937000,493.730000 L 275.086000,493.605000 L 275.199000,493.444000 L 275.741000,492.515000 L 275.854000,492.360000 L 275.997000,492.229000 L 276.170000,492.146000 L 276.355000,492.075000 L 276.540000,492.056000 L 282.442000,492.056000 L 282.644000,492.086000 L 282.847000,492.157000 L 283.020000,492.276000 L 283.675000,492.830000 L 284.277000,493.432000 L 284.849000,494.076000 L 285.379000,494.761000 L 285.849000,495.464000 L 286.278000,496.208000 L 286.665000,496.977000 L 286.993000,497.781000 L 287.261000,498.579000 L 287.475000,499.407000 L 287.648000,500.253000 L 287.648000,500.447000 L 287.651000,500.447000 Z M 336.605000,565.084000 L 336.576000,565.286000 L 336.493000,565.482000 L 336.463000,565.512000 L 318.036000,554.893000 L 314.296000,561.397000 L 332.717000,572.015000 L 332.705000,572.057000 L 332.574000,572.230000 L 332.419000,572.361000 L 332.234000,572.457000 L 332.032000,572.517000 L 331.829000,572.517000 L 331.615000,572.475000 L 331.430000,572.404000 L 329.744000,571.433000 L 329.548000,571.331000 L 329.333000,571.302000 L 329.101000,571.320000 L 328.886000,571.385000 L 328.702000,571.504000 L 327.844000,572.148000 L 326.945000,572.731000 L 326.016000,573.273000 L 325.070000,573.773000 L 324.087000,574.203000 L 323.068000,574.590000 L 322.056000,574.905000 L 321.013000,575.179000 L 319.953000,575.394000 L 318.892000,575.537000 L 317.821000,575.620000 L 316.749000,575.650000 L 315.867000,575.631000 L 314.980000,575.548000 L 314.111000,575.417000 L 313.235000,575.232000 L 312.378000,575.005000 L 311.538000,574.719000 L 310.722000,574.386000 L 309.918000,574.005000 L 309.131000,573.575000 L 308.387000,573.104000 L 307.678000,572.586000 L 306.975000,572.044000 L 306.314000,571.442000 L 306.159000,571.317000 L 305.987000,571.228000 L 305.790000,571.186000 L 305.587000,571.186000 L 305.402000,571.228000 L 305.217000,571.299000 L 303.871000,572.085000 L 303.728000,572.126000 L 303.603000,572.114000 L 303.472000,572.054000 L 303.389000,571.958000 L 301.870000,569.314000 L 301.810000,569.182000 L 301.828000,569.051000 L 301.888000,568.926000 L 302.001000,568.837000 L 302.841000,568.337000 L 303.001000,568.224000 L 303.145000,568.080000 L 303.228000,567.908000 L 303.288000,567.723000 L 303.311000,567.521000 L 303.288000,567.324000 L 303.216000,567.139000 L 302.841000,566.311000 L 302.531000,565.454000 L 302.257000,564.579000 L 302.054000,563.680000 L 301.887000,562.781000 L 301.785000,561.882000 L 301.738000,560.965000 L 301.738000,560.047000 L 301.809000,559.137000 L 301.928000,558.237000 L 302.101000,557.333000 L 302.327000,556.451000 L 302.613000,555.594000 L 302.941000,554.737000 L 303.328000,553.903000 L 303.768000,553.104000 L 304.245000,552.331000 L 304.787000,551.593000 L 305.358000,550.878000 L 305.972000,550.205000 L 306.627000,549.561000 L 307.312000,548.959000 L 308.044000,548.417000 L 308.800000,547.899000 L 308.961000,547.786000 L 309.074000,547.642000 L 309.157000,547.488000 L 309.217000,547.303000 L 309.241000,547.112000 L 309.241000,543.956000 L 309.259000,543.825000 L 309.330000,543.712000 L 309.443000,543.641000 L 309.574000,543.599000 L 310.032000,543.539000 L 310.503000,543.426000 L 310.944000,543.254000 L 311.373000,543.039000 L 311.760000,542.783000 L 312.130000,542.485000 L 312.458000,542.157000 L 312.762000,541.782000 L 313.006000,541.365000 L 313.203000,540.942000 L 313.364000,540.496000 L 313.477000,540.038000 L 313.519000,539.567000 L 313.519000,539.085000 L 313.477000,538.608000 L 313.364000,538.149000 L 313.203000,537.709000 L 313.006000,537.280000 L 312.762000,536.863000 L 312.458000,536.494000 L 312.130000,536.166000 L 311.760000,535.869000 L 311.373000,535.606000 L 310.944000,535.392000 L 310.503000,535.225000 L 310.032000,535.106000 L 309.574000,535.052000 L 309.443000,535.010000 L 309.330000,534.933000 L 309.259000,534.820000 L 309.241000,534.695000 L 309.241000,528.704000 L 309.270000,528.490000 L 309.342000,528.287000 L 309.473000,528.102000 L 309.628000,527.948000 L 309.831000,527.846000 L 310.045000,527.792000 L 310.259000,527.792000 L 311.361000,527.935000 L 312.445000,528.131000 L 313.517000,528.375000 L 314.589000,528.691000 L 315.631000,529.060000 L 316.650000,529.476000 L 317.651000,529.959000 L 318.622000,530.488000 L 319.562000,531.060000 L 320.480000,531.692000 L 321.367000,532.365000 L 322.195000,533.091000 L 322.993000,533.848000 L 323.767000,534.663000 L 324.482000,535.510000 L 325.137000,536.391000 L 325.238000,536.552000 L 325.299000,536.737000 L 325.322000,536.922000 L 325.322000,538.494000 L 325.340000,538.696000 L 325.411000,538.893000 L 325.513000,539.066000 L 325.638000,539.209000 L 325.811000,539.322000 L 326.728000,539.840000 L 327.616000,540.412000 L 328.456000,541.025000 L 329.271000,541.680000 L 330.057000,542.382000 L 330.801000,543.126000 L 331.498000,543.913000 L 332.142000,544.728000 L 332.761000,545.586000 L 333.315000,546.467000 L 333.834000,547.384000 L 334.304000,548.325000 L 334.703000,549.296000 L 335.060000,550.284000 L 335.358000,551.284000 L 335.614000,552.315000 L 335.804000,553.345000 L 335.948000,554.387000 L 336.019000,555.429000 L 336.042000,556.490000 L 336.000000,557.532000 L 335.917000,558.574000 L 335.762000,559.616000 L 335.560000,560.647000 L 335.286000,561.666000 L 334.971000,562.666000 L 334.930000,562.881000 L 334.930000,563.095000 L 334.990000,563.291000 L 335.091000,563.477000 L 335.217000,563.649000 L 335.389000,563.780000 L 336.146000,564.209000 L 336.319000,564.334000 L 336.450000,564.495000 L 336.545000,564.668000 L 336.605000,564.864000 L 336.605000,565.084000 Z M 369.124000,487.488000 L 369.094000,487.673000 L 369.023000,487.858000 L 368.910000,488.031000 L 368.766000,488.174000 L 368.593000,488.276000 L 368.409000,488.330000 L 368.206000,488.359000 L 362.680000,488.359000 L 362.465000,488.372000 L 362.263000,488.461000 L 362.078000,488.574000 L 361.935000,488.728000 L 361.821000,488.919000 L 361.762000,489.115000 L 361.493000,490.544000 L 361.147000,491.962000 L 360.760000,493.361000 L 360.320000,494.749000 L 359.831000,496.106000 L 359.272000,497.446000 L 358.676000,498.781000 L 358.015000,500.067000 L 357.318000,501.336000 L 356.574000,502.580000 L 355.758000,503.796000 L 354.912000,504.969000 L 354.030000,506.124000 L 353.084000,507.227000 L 352.102000,508.298000 L 351.083000,509.328000 L 350.028000,510.329000 L 348.926000,511.269000 L 347.783000,512.168000 L 346.609000,513.025000 L 345.412000,513.841000 L 344.180000,514.615000 L 342.905000,515.329000 L 341.619000,515.985000 L 340.309000,516.597000 L 338.963000,517.169000 L 337.605000,517.669000 L 336.235000,518.128000 L 334.830000,518.526000 L 333.419000,518.872000 L 332.001000,519.170000 L 330.571000,519.402000 L 329.131000,519.575000 L 327.672000,519.700000 L 326.231000,519.760000 L 326.028000,519.789000 L 325.826000,519.861000 L 325.659000,519.973000 L 325.516000,520.117000 L 325.414000,520.290000 L 325.343000,520.486000 L 325.325000,520.688000 L 325.325000,525.846000 L 325.302000,526.060000 L 325.212000,526.263000 L 325.099000,526.447000 L 324.926000,526.602000 L 324.741000,526.704000 L 324.526000,526.764000 L 324.300000,526.764000 L 323.197000,526.620000 L 322.107000,526.436000 L 321.036000,526.173000 L 319.981000,525.863000 L 318.939000,525.488000 L 317.909000,525.071000 L 316.908000,524.589000 L 315.938000,524.059000 L 314.991000,523.488000 L 314.079000,522.862000 L 313.204000,522.189000 L 312.364000,521.457000 L 311.560000,520.701000 L 310.804000,519.885000 L 310.090000,519.045000 L 309.417000,518.170000 L 309.316000,518.003000 L 309.262000,517.813000 L 309.244000,517.628000 L 309.244000,515.514000 L 309.220000,515.299000 L 309.130000,515.084000 L 309.005000,514.900000 L 308.833000,514.756000 L 307.761000,514.000000 L 306.731000,513.195000 L 305.749000,512.355000 L 304.790000,511.480000 L 303.861000,510.551000 L 302.986000,509.580000 L 302.158000,508.579000 L 301.372000,507.537000 L 300.627000,506.465000 L 299.942000,505.363000 L 299.298000,504.231000 L 298.696000,503.076000 L 298.154000,501.890000 L 298.053000,501.700000 L 297.898000,501.546000 L 297.725000,501.421000 L 297.523000,501.349000 L 297.309000,501.320000 L 295.308000,501.320000 L 295.094000,501.302000 L 294.897000,501.230000 L 294.725000,501.118000 L 294.081000,500.563000 L 293.468000,499.944000 L 292.896000,499.319000 L 292.378000,498.633000 L 291.896000,497.919000 L 291.467000,497.174000 L 291.092000,496.400000 L 290.765000,495.615000 L 290.479000,494.799000 L 290.265000,493.971000 L 290.110000,493.125000 L 290.098000,492.929000 L 290.121000,492.726000 L 290.193000,492.542000 L 290.312000,492.387000 L 290.467000,492.244000 L 290.640000,492.142000 L 290.825000,492.082000 L 291.021000,492.052000 L 294.838000,492.052000 L 295.053000,492.029000 L 295.255000,491.958000 L 295.428000,491.839000 L 295.571000,491.702000 L 295.684000,491.511000 L 295.755000,491.315000 L 295.767000,491.101000 L 295.755000,489.814000 L 295.797000,488.528000 L 295.899000,487.242000 L 296.054000,485.955000 L 296.268000,484.681000 L 296.542000,483.424000 L 296.870000,482.180000 L 297.239000,480.935000 L 297.668000,479.720000 L 298.156000,478.524000 L 298.686000,477.350000 L 299.270000,476.206000 L 299.913000,475.074000 L 300.604000,473.991000 L 301.331000,472.919000 L 302.105000,471.888000 L 302.933000,470.907000 L 303.790000,469.947000 L 304.689000,469.018000 L 305.630000,468.143000 L 306.618000,467.303000 L 307.631000,466.517000 L 308.691000,465.761000 L 309.763000,465.058000 L 310.877000,464.396000 L 312.021000,463.801000 L 313.176000,463.241000 L 314.367000,462.740000 L 315.582000,462.282000 L 316.809000,461.884000 L 318.054000,461.544000 L 319.310000,461.258000 L 320.567000,461.026000 L 321.853000,460.841000 L 323.140000,460.710000 L 324.426000,460.656000 L 324.628000,460.627000 L 324.813000,460.555000 L 324.986000,460.443000 L 325.130000,460.299000 L 325.231000,460.109000 L 325.303000,459.924000 L 325.326000,459.727000 L 325.326000,458.066000 L 326.314000,458.066000 L 327.285000,458.126000 L 328.273000,458.228000 L 329.244000,458.382000 L 330.204000,458.584000 L 331.162000,458.841000 L 332.092000,459.156000 L 333.003000,459.513000 L 333.902000,459.924000 L 333.074000,459.953000 L 332.246000,460.024000 L 331.431000,460.168000 L 330.620000,460.353000 L 329.828000,460.597000 L 329.042000,460.883000 L 328.304000,461.228000 L 327.560000,461.615000 L 326.857000,462.056000 L 326.184000,462.544000 L 325.540000,463.068000 L 324.945000,463.628000 L 324.373000,464.241000 L 323.843000,464.873000 L 323.355000,465.558000 L 322.926000,466.261000 L 322.527000,466.988000 L 322.182000,467.744000 L 321.896000,468.518000 L 321.658000,469.316000 L 321.468000,470.121000 L 321.343000,470.948000 L 321.253000,471.764000 L 321.230000,472.591000 L 321.253000,473.419000 L 321.343000,474.247000 L 321.468000,475.062000 L 321.658000,475.878000 L 321.896000,476.664000 L 322.182000,477.450000 L 322.527000,478.194000 L 322.926000,478.932000 L 323.355000,479.635000 L 323.843000,480.308000 L 324.373000,480.952000 L 324.945000,481.548000 L 325.540000,482.125000 L 326.184000,482.649000 L 326.857000,483.137000 L 327.560000,483.566000 L 328.287000,483.964000 L 329.043000,484.310000 L 329.829000,484.596000 L 330.621000,484.840000 L 331.432000,485.025000 L 332.247000,485.150000 L 333.075000,485.240000 L 333.903000,485.269000 L 334.737000,485.240000 L 335.552000,485.150000 L 336.379000,485.025000 L 337.178000,484.840000 L 337.976000,484.596000 L 338.750000,484.310000 L 339.506000,483.964000 L 340.239000,483.566000 L 340.935000,483.137000 L 341.608000,482.649000 L 342.252000,482.125000 L 342.865000,481.548000 L 343.425000,480.952000 L 343.955000,480.308000 L 344.437000,479.635000 L 344.883000,478.932000 L 345.265000,478.205000 L 345.610000,477.449000 L 345.896000,476.663000 L 346.140000,475.877000 L 346.325000,475.061000 L 346.469000,474.246000 L 346.540000,473.418000 L 346.569000,472.590000 L 346.540000,471.644000 L 346.469000,470.715000 L 346.325000,469.774000 L 346.123000,468.856000 L 345.885000,467.946000 L 345.581000,467.058000 L 345.241000,466.170000 L 344.824000,465.330000 L 344.384000,464.497000 L 343.824000,463.597000 L 343.222000,462.729000 L 342.578000,461.900000 L 341.882000,461.096000 L 341.150000,460.322000 L 340.393000,459.614000 L 339.578000,458.923000 L 338.750000,458.279000 L 337.880000,457.684000 L 336.975000,457.136000 L 336.004000,456.594000 L 335.004000,456.123000 L 333.991000,455.694000 L 332.949000,455.306000 L 331.888000,454.979000 L 330.817000,454.705000 L 329.733000,454.491000 L 328.630000,454.324000 L 327.528000,454.223000 L 326.426000,454.162000 L 325.324000,454.162000 L 325.324000,452.549000 L 325.342000,452.346000 L 325.396000,452.162000 L 325.498000,451.989000 L 325.629000,451.845000 L 325.783000,451.732000 L 333.847000,447.086000 L 334.049000,446.985000 L 334.204000,446.830000 L 334.329000,446.657000 L 334.400000,446.443000 L 334.430000,446.228000 L 334.430000,444.371000 L 334.459000,444.156000 L 334.530000,443.941000 L 334.661000,443.769000 L 334.828000,443.614000 L 335.018000,443.512000 L 335.233000,443.458000 L 335.447000,443.458000 L 336.543000,443.602000 L 337.646000,443.787000 L 338.717000,444.043000 L 339.778000,444.359000 L 340.820000,444.727000 L 341.850000,445.144000 L 342.851000,445.626000 L 343.822000,446.156000 L 344.769000,446.728000 L 345.679000,447.359000 L 346.549000,448.032000 L 347.395000,448.759000 L 348.199000,449.516000 L 348.956000,450.331000 L 349.671000,451.177000 L 350.344000,452.046000 L 350.439000,452.219000 L 350.499000,452.405000 L 350.512000,452.589000 L 350.512000,455.305000 L 350.530000,455.491000 L 350.584000,455.681000 L 350.686000,455.835000 L 350.798000,455.979000 L 351.817000,456.979000 L 352.770000,458.010000 L 353.699000,459.081000 L 354.587000,460.183000 L 355.433000,461.309000 L 356.231000,462.482000 L 356.994000,463.668000 L 357.690000,464.900000 L 358.363000,466.157000 L 358.965000,467.426000 L 359.537000,468.712000 L 360.049000,470.046000 L 360.508000,471.374000 L 360.919000,472.731000 L 361.282000,474.101000 L 361.580000,475.478000 L 361.836000,476.859000 L 362.038000,478.265000 L 362.092000,478.491000 L 362.194000,478.676000 L 362.337000,478.849000 L 362.522000,478.980000 L 362.737000,479.052000 L 362.951000,479.075000 L 363.922000,479.075000 L 364.125000,479.105000 L 364.327000,479.175000 L 364.500000,479.288000 L 365.155000,479.849000 L 365.757000,480.451000 L 366.328000,481.094000 L 366.858000,481.779000 L 367.329000,482.494000 L 367.758000,483.239000 L 368.145000,483.995000 L 368.472000,484.794000 L 368.741000,485.609000 L 368.956000,486.437000 L 369.129000,487.283000 L 369.129000,487.488000 L 369.124000,487.488000 Z M 394.852000,478.311000 L 394.680000,479.151000 L 394.465000,479.985000 L 394.196000,480.783000 L 393.869000,481.581000 L 393.481000,482.355000 L 393.052000,483.099000 L 392.582000,483.814000 L 392.052000,484.487000 L 391.481000,485.131000 L 390.878000,485.727000 L 390.224000,486.298000 L 390.051000,486.400000 L 389.848000,486.471000 L 389.646000,486.500000 L 383.744000,486.500000 L 383.559000,486.513000 L 383.374000,486.584000 L 383.201000,486.673000 L 383.058000,486.798000 L 382.945000,486.959000 L 382.403000,487.888000 L 382.290000,488.043000 L 382.142000,488.174000 L 381.975000,488.276000 L 381.802000,488.330000 L 381.600000,488.359000 L 376.782000,488.359000 L 376.568000,488.330000 L 376.371000,488.259000 L 376.199000,488.146000 L 375.555000,487.585000 L 374.942000,486.990000 L 374.370000,486.346000 L 373.852000,485.655000 L 373.370000,484.940000 L 372.941000,484.203000 L 372.565000,483.440000 L 372.238000,482.642000 L 371.952000,481.826000 L 371.738000,480.999000 L 371.583000,480.153000 L 371.571000,479.956000 L 371.594000,479.771000 L 371.665000,479.581000 L 371.784000,479.408000 L 371.939000,479.271000 L 372.112000,479.169000 L 372.297000,479.110000 L 372.493000,479.080000 L 383.743000,479.080000 L 383.946000,479.068000 L 384.119000,479.008000 L 384.286000,478.912000 L 384.434000,478.781000 L 384.547000,478.626000 L 385.089000,477.697000 L 385.202000,477.536000 L 385.345000,477.411000 L 385.518000,477.309000 L 385.703000,477.249000 L 385.888000,477.237000 L 393.934000,477.237000 L 394.136000,477.249000 L 394.321000,477.321000 L 394.494000,477.423000 L 394.638000,477.554000 L 394.750000,477.721000 L 394.822000,477.910000 L 394.851000,478.107000 L 394.851000,478.311000 L 394.852000,478.311000 Z M 420.580000,487.488000 L 420.550000,487.673000 L 420.479000,487.858000 L 420.367000,488.031000 L 420.223000,488.174000 L 420.050000,488.276000 L 419.865000,488.330000 L 419.662000,488.359000 L 411.617000,488.359000 L 411.432000,488.330000 L 411.246000,488.276000 L 411.073000,488.174000 L 410.931000,488.043000 L 410.817000,487.888000 L 410.275000,486.959000 L 410.163000,486.798000 L 410.014000,486.673000 L 409.847000,486.584000 L 409.675000,486.513000 L 409.472000,486.500000 L 398.222000,486.500000 L 398.025000,486.471000 L 397.841000,486.417000 L 397.668000,486.316000 L 397.513000,486.172000 L 397.394000,486.012000 L 397.323000,485.826000 L 397.300000,485.624000 L 397.312000,485.428000 L 397.467000,484.582000 L 397.681000,483.754000 L 397.967000,482.939000 L 398.294000,482.153000 L 398.669000,481.384000 L 399.099000,480.639000 L 399.580000,479.924000 L 400.099000,479.251000 L 400.670000,478.608000 L 401.284000,477.994000 L 401.927000,477.435000 L 402.100000,477.322000 L 402.297000,477.250000 L 402.511000,477.238000 L 407.328000,477.238000 L 407.531000,477.250000 L 407.704000,477.310000 L 407.871000,477.412000 L 408.019000,477.537000 L 408.132000,477.698000 L 408.674000,478.627000 L 408.787000,478.782000 L 408.930000,478.913000 L 409.103000,479.009000 L 409.288000,479.069000 L 409.473000,479.081000 L 415.375000,479.081000 L 415.577000,479.111000 L 415.780000,479.181000 L 415.952000,479.294000 L 416.607000,479.855000 L 417.209000,480.457000 L 417.781000,481.100000 L 418.310000,481.785000 L 418.781000,482.500000 L 419.210000,483.245000 L 419.598000,484.001000 L 419.925000,484.800000 L 420.194000,485.615000 L 420.408000,486.443000 L 420.581000,487.289000 L 420.581000,487.488000 L 420.580000,487.488000 Z M 446.309000,478.311000 L 446.136000,479.151000 L 445.922000,479.985000 L 445.653000,480.783000 L 445.326000,481.581000 L 444.938000,482.355000 L 444.509000,483.099000 L 444.038000,483.814000 L 443.508000,484.487000 L 442.937000,485.131000 L 442.335000,485.727000 L 441.680000,486.298000 L 441.507000,486.400000 L 441.305000,486.471000 L 441.102000,486.500000 L 435.201000,486.500000 L 435.016000,486.513000 L 434.831000,486.584000 L 434.658000,486.673000 L 434.515000,486.798000 L 434.401000,486.959000 L 433.860000,487.888000 L 433.747000,488.043000 L 433.598000,488.174000 L 433.431000,488.276000 L 433.259000,488.330000 L 433.056000,488.359000 L 428.239000,488.359000 L 428.024000,488.330000 L 427.828000,488.259000 L 427.655000,488.146000 L 427.012000,487.585000 L 426.398000,486.990000 L 425.827000,486.346000 L 425.308000,485.655000 L 424.826000,484.940000 L 424.397000,484.203000 L 424.022000,483.440000 L 423.695000,482.642000 L 423.408000,481.826000 L 423.194000,480.999000 L 423.039000,480.153000 L 423.027000,479.956000 L 423.051000,479.771000 L 423.122000,479.581000 L 423.241000,479.408000 L 423.396000,479.271000 L 423.569000,479.169000 L 423.753000,479.110000 L 423.950000,479.080000 L 435.200000,479.080000 L 435.402000,479.068000 L 435.575000,479.008000 L 435.742000,478.912000 L 435.890000,478.781000 L 436.003000,478.626000 L 436.545000,477.697000 L 436.658000,477.536000 L 436.801000,477.411000 L 436.974000,477.309000 L 437.159000,477.249000 L 437.344000,477.237000 L 445.390000,477.237000 L 445.593000,477.249000 L 445.778000,477.321000 L 445.951000,477.423000 L 446.094000,477.554000 L 446.207000,477.721000 L 446.278000,477.910000 L 446.308000,478.107000 L 446.308000,478.311000 L 446.309000,478.311000 Z M 472.036000,487.488000 L 472.007000,487.673000 L 471.936000,487.858000 L 471.823000,488.031000 L 471.680000,488.174000 L 471.507000,488.276000 L 471.321000,488.330000 L 471.119000,488.359000 L 463.073000,488.359000 L 462.888000,488.330000 L 462.703000,488.276000 L 462.530000,488.174000 L 462.387000,488.043000 L 462.274000,487.888000 L 461.732000,486.959000 L 461.619000,486.798000 L 461.470000,486.673000 L 461.304000,486.584000 L 461.131000,486.513000 L 460.928000,486.500000 L 449.678000,486.500000 L 449.482000,486.471000 L 449.297000,486.417000 L 449.124000,486.316000 L 448.969000,486.172000 L 448.851000,486.012000 L 448.780000,485.826000 L 448.756000,485.624000 L 448.768000,485.428000 L 448.923000,484.582000 L 449.137000,483.754000 L 449.423000,482.939000 L 449.751000,482.153000 L 450.126000,481.384000 L 450.555000,480.639000 L 451.037000,479.924000 L 451.556000,479.251000 L 452.127000,478.608000 L 452.740000,477.994000 L 453.384000,477.435000 L 453.556000,477.322000 L 453.753000,477.250000 L 453.967000,477.238000 L 458.785000,477.238000 L 458.987000,477.250000 L 459.160000,477.310000 L 459.327000,477.412000 L 459.476000,477.537000 L 459.588000,477.698000 L 460.130000,478.627000 L 460.243000,478.782000 L 460.386000,478.913000 L 460.559000,479.009000 L 460.745000,479.069000 L 460.929000,479.081000 L 466.831000,479.081000 L 467.033000,479.111000 L 467.236000,479.181000 L 467.408000,479.294000 L 468.064000,479.855000 L 468.666000,480.457000 L 469.237000,481.100000 L 469.767000,481.785000 L 470.237000,482.500000 L 470.667000,483.245000 L 471.054000,484.001000 L 471.382000,484.800000 L 471.650000,485.615000 L 471.864000,486.443000 L 472.037000,487.289000 L 472.037000,487.488000 L 472.036000,487.488000 Z M 516.120000,483.671000 L 516.030000,484.552000 L 515.905000,485.428000 L 515.732000,486.297000 L 515.488000,487.143000 L 515.220000,487.989000 L 514.887000,488.817000 L 514.499000,489.603000 L 514.070000,490.389000 L 513.986000,490.490000 L 513.843000,490.544000 L 513.700000,490.544000 L 513.569000,490.490000 L 513.158000,490.246000 L 512.729000,490.032000 L 512.282000,489.889000 L 511.812000,489.776000 L 511.341000,489.728000 L 510.853000,489.728000 L 510.382000,489.776000 L 509.911000,489.889000 L 509.471000,490.043000 L 509.042000,490.245000 L 508.624000,490.502000 L 508.256000,490.800000 L 507.910000,491.146000 L 507.624000,491.514000 L 507.368000,491.919000 L 507.153000,492.348000 L 506.993000,492.789000 L 506.880000,493.260000 L 506.826000,493.730000 L 506.826000,494.218000 L 506.868000,494.689000 L 506.980000,495.160000 L 507.124000,495.606000 L 507.339000,496.046000 L 507.368000,496.177000 L 507.350000,496.321000 L 507.284000,496.446000 L 507.166000,496.536000 L 506.326000,496.875000 L 505.468000,497.161000 L 504.593000,497.393000 L 503.705000,497.578000 L 502.824000,497.709000 L 501.925000,497.780000 L 501.020000,497.804000 L 500.109000,497.762000 L 499.222000,497.679000 L 498.322000,497.535000 L 497.435000,497.333000 L 496.577000,497.089000 L 495.720000,496.791000 L 494.893000,496.434000 L 494.077000,496.036000 L 493.291000,495.589000 L 492.534000,495.088000 L 491.820000,494.565000 L 491.117000,493.975000 L 490.473000,493.350000 L 489.842000,492.689000 L 489.277000,491.993000 L 488.747000,491.260000 L 488.259000,490.504000 L 487.818000,489.718000 L 487.431000,488.902000 L 487.318000,488.717000 L 487.175000,488.574000 L 486.984000,488.443000 L 486.788000,488.372000 L 486.574000,488.359000 L 477.194000,488.359000 L 476.967000,488.330000 L 476.752000,488.247000 L 476.568000,488.103000 L 476.413000,487.930000 L 475.984000,487.215000 L 475.596000,486.471000 L 475.251000,485.702000 L 474.965000,484.916000 L 474.738000,484.112000 L 474.548000,483.284000 L 474.423000,482.456000 L 474.352000,481.629000 L 474.322000,480.783000 L 474.364000,479.937000 L 474.393000,479.752000 L 474.483000,479.567000 L 474.578000,479.406000 L 474.739000,479.269000 L 474.912000,479.167000 L 475.097000,479.108000 L 475.282000,479.078000 L 477.152000,479.078000 L 477.367000,479.066000 L 477.551000,478.994000 L 477.742000,478.881000 L 477.885000,478.738000 L 477.998000,478.565000 L 478.069000,478.363000 L 478.325000,477.362000 L 478.641000,476.380000 L 479.010000,475.421000 L 479.439000,474.462000 L 479.910000,473.552000 L 480.428000,472.646000 L 481.000000,471.789000 L 481.613000,470.949000 L 482.267000,470.145000 L 482.958000,469.388000 L 483.702000,468.661000 L 484.471000,467.976000 L 485.287000,467.332000 L 486.127000,466.742000 L 487.014000,466.189000 L 487.913000,465.682000 L 488.848000,465.229000 L 489.801000,464.831000 L 490.778000,464.474000 L 491.761000,464.170000 L 492.774000,463.926000 L 493.793000,463.741000 L 494.822000,463.597000 L 495.846000,463.514000 L 496.876000,463.496000 L 497.919000,463.526000 L 498.948000,463.615000 L 499.979000,463.758000 L 500.992000,463.943000 L 501.992000,464.200000 L 502.194000,464.229000 L 502.396000,464.211000 L 502.593000,464.157000 L 502.921000,463.925000 L 503.039000,463.771000 L 503.438000,463.085000 L 503.563000,462.925000 L 503.724000,462.781000 L 503.897000,462.686000 L 504.093000,462.638000 L 504.307000,462.626000 L 504.510000,462.667000 L 504.695000,462.756000 L 505.481000,463.197000 L 494.833000,481.605000 L 502.866000,486.251000 L 513.515000,467.843000 L 514.313000,468.301000 L 514.474000,468.426000 L 514.617000,468.587000 L 514.713000,468.772000 L 514.760000,468.974000 L 514.772000,469.171000 L 514.731000,469.385000 L 514.641000,469.570000 L 513.331000,471.845000 L 513.259000,472.030000 L 513.211000,472.215000 L 513.211000,472.418000 L 513.259000,472.603000 L 513.343000,472.788000 L 513.873000,473.705000 L 514.331000,474.646000 L 514.760000,475.604000 L 515.117000,476.593000 L 515.433000,477.593000 L 515.689000,478.623000 L 515.885000,479.648000 L 516.028000,480.689000 L 516.118000,481.738000 L 516.141000,482.792000 L 516.120000,483.671000 Z M 516.120000,483.671000 " fill="#E5E5E5" fill-opacity="1.000000" stroke-width="1.000000" stroke-linecap="butt" stroke-linejoin="miter" stroke-miterlimit="4.000000" stroke-dasharray="" stroke-dashoffset="0.000000" stroke="none"></path>
    <path d="M 525.250000,564.899000 L 525.250000,397.910000 L 519.913000,397.910000 L 519.926000,391.644000 L 519.926000,391.644000 L 519.877000,390.946000 L 519.740000,390.264000 L 519.519000,389.607000 L 519.215000,388.983000 L 518.832000,388.400000 L 518.371000,387.868000 L 518.113000,387.623000 L 517.836000,387.394000 L 517.541000,387.182000 L 517.228000,386.987000 L 459.733000,354.029000 L 459.733000,354.029000 L 459.133000,353.729000 L 458.484000,353.504000 L 458.144000,353.422000 L 457.794000,353.363000 L 457.436000,353.326000 L 457.071000,353.314000 L 408.354000,353.272000 L 408.306000,410.928000 L 280.921000,410.928000 L 280.885000,395.753000 L 273.601000,395.753000 L 273.601000,411.589000 L 212.883000,411.589000 L 212.883000,433.857000 L 176.316000,433.857000 L 176.316000,424.406000 L 177.918000,423.477000 L 177.918000,414.204000 L 176.316000,413.275000 L 176.316000,409.570000 L 177.918000,408.641000 L 177.918000,399.380000 L 176.316000,398.451000 L 176.316000,379.911000 L 177.918000,378.981000 L 177.918000,369.720000 L 176.316000,368.791000 L 176.316000,359.488000 L 169.926000,348.458000 L 169.664000,348.613000 L 168.860000,347.219000 L 168.860000,347.219000 L 168.859000,347.211000 L 168.854000,347.207000 L 168.854000,347.207000 L 168.607000,346.718000 L 168.414000,346.216000 L 168.274000,345.706000 L 168.186000,345.189000 L 168.149000,344.671000 L 168.163000,344.155000 L 168.225000,343.644000 L 168.336000,343.142000 L 168.495000,342.653000 L 168.699000,342.181000 L 168.949000,341.729000 L 169.243000,341.301000 L 169.581000,340.900000 L 169.960000,340.530000 L 170.382000,340.195000 L 170.843000,339.899000 L 144.918000,354.818000 L 145.722000,356.206000 L 140.159000,359.434000 L 139.355000,358.040000 L 134.912000,360.613000 L 134.912000,360.613000 L 134.335000,361.003000 L 133.816000,361.461000 L 133.360000,361.979000 L 132.973000,362.551000 L 132.662000,363.172000 L 132.432000,363.834000 L 132.350000,364.179000 L 132.291000,364.531000 L 132.255000,364.892000 L 132.244000,365.258000 L 132.268000,381.362000 L 125.389000,381.374000 L 125.389000,587.813000 L 130.189000,587.831000 L 130.153000,598.016000 L 130.153000,598.016000 L 130.131000,598.393000 L 130.135000,598.768000 L 130.165000,599.141000 L 130.221000,599.508000 L 130.302000,599.870000 L 130.407000,600.225000 L 130.538000,600.572000 L 130.692000,600.908000 L 130.870000,601.234000 L 131.071000,601.547000 L 131.295000,601.846000 L 131.541000,602.131000 L 131.810000,602.398000 L 132.100000,602.649000 L 132.412000,602.880000 L 132.744000,603.090000 L 139.414000,606.955000 L 144.203000,598.546000 L 144.203000,584.776000 L 157.305000,584.776000 L 157.305000,589.708000 L 155.334000,589.708000 L 154.006000,592.024000 L 153.446000,592.024000 L 153.446000,593.810000 L 155.864000,593.810000 L 156.679000,592.380000 L 165.053000,592.380000 L 165.053000,598.907000 L 171.670000,598.914000 L 171.670000,597.014000 L 173.599000,593.667000 L 203.830000,611.123000 L 203.032000,612.522000 L 204.890000,613.593000 L 205.712000,612.205000 L 205.903000,612.313000 L 214.931000,596.453000 L 214.931000,596.453000 L 215.318000,595.870000 L 215.773000,595.344000 L 216.291000,594.881000 L 216.864000,594.488000 L 217.486000,594.172000 L 218.150000,593.938000 L 218.497000,593.854000 L 218.851000,593.793000 L 219.213000,593.756000 L 219.582000,593.743000 L 238.086000,593.737000 L 238.074000,585.120000 L 373.564000,585.120000 L 373.564000,598.811000 L 397.392000,598.811000 L 397.392000,598.811000 L 398.086000,598.762000 L 398.763000,598.626000 L 399.416000,598.406000 L 400.036000,598.104000 L 400.614000,597.722000 L 401.142000,597.264000 L 401.385000,597.006000 L 401.612000,596.730000 L 401.822000,596.436000 L 402.014000,596.124000 L 414.300000,574.518000 L 431.422000,584.255000 L 431.422000,584.255000 L 431.993000,584.627000 L 432.521000,585.079000 L 432.765000,585.334000 L 432.995000,585.609000 L 433.209000,585.902000 L 433.405000,586.215000 L 446.185000,608.125000 L 446.185000,608.125000 L 446.484000,608.583000 L 446.822000,609.001000 L 447.193000,609.378000 L 447.596000,609.712000 L 448.025000,610.003000 L 448.478000,610.250000 L 448.951000,610.451000 L 449.439000,610.607000 L 449.941000,610.715000 L 450.451000,610.775000 L 450.966000,610.786000 L 451.483000,610.747000 L 451.998000,610.657000 L 452.507000,610.516000 L 453.007000,610.321000 L 453.494000,610.072000 L 478.263000,595.821000 L 498.566000,584.141000 L 504.135000,580.950000 L 503.313000,579.502000 L 506.892000,577.454000 L 507.714000,578.895000 L 518.476000,572.487000 L 518.476000,572.487000 L 518.943000,572.175000 L 519.359000,571.805000 L 519.719000,571.384000 L 520.016000,570.918000 L 520.247000,570.414000 L 520.406000,569.878000 L 520.489000,569.316000 L 520.489000,568.734000 L 520.412000,567.686000 L 518.048000,567.686000 L 518.048000,564.893000 L 525.250000,564.893000 L 525.250000,564.899000 Z M 525.250000,564.899000 " fill="#000" fill-opacity="1.000000" stroke-width="1.000000" stroke-linecap="butt" stroke-linejoin="miter" stroke-miterlimit="4.000000" stroke-dasharray="" stroke-dashoffset="0.000000" stroke="none"></path>
    <path d="M 176.132000,500.650000 L 176.061000,500.835000 L 175.948000,501.008000 L 175.805000,501.139000 L 175.632000,501.252000 L 175.447000,501.306000 L 175.244000,501.324000 L 173.487000,501.324000 L 173.290000,501.353000 L 173.088000,501.425000 L 172.915000,501.520000 L 172.760000,501.681000 L 172.659000,501.854000 L 172.588000,502.038000 L 172.314000,503.039000 L 172.004000,504.021000 L 171.629000,504.999000 L 171.218000,505.939000 L 170.741000,506.868000 L 170.217000,507.756000 L 169.657000,508.626000 L 169.044000,509.453000 L 168.383000,510.258000 L 167.686000,511.027000 L 166.942000,511.741000 L 166.173000,512.426000 L 165.358000,513.075000 L 164.512000,513.671000 L 163.642000,514.219000 L 162.743000,514.732000 L 161.808000,515.172000 L 160.855000,515.589000 L 159.878000,515.934000 L 158.896000,516.232000 L 157.877000,516.489000 L 156.864000,516.674000 L 155.834000,516.817000 L 154.810000,516.888000 L 153.780000,516.918000 L 152.732000,516.888000 L 151.708000,516.805000 L 150.678000,516.662000 L 149.665000,516.476000 L 148.659000,516.220000 L 148.462000,516.191000 L 148.260000,516.203000 L 148.063000,516.263000 L 147.891000,516.365000 L 147.736000,516.490000 L 147.617000,516.650000 L 147.206000,517.365000 L 147.075000,517.520000 L 146.921000,517.663000 L 146.748000,517.765000 L 146.545000,517.807000 L 146.331000,517.819000 L 146.134000,517.777000 L 145.932000,517.693000 L 145.134000,517.235000 L 155.783000,498.826000 L 147.761000,494.181000 L 137.113000,512.589000 L 136.315000,512.131000 L 136.143000,512.006000 L 136.012000,511.845000 L 135.917000,511.660000 L 135.857000,511.457000 L 135.857000,511.261000 L 135.887000,511.059000 L 135.970000,510.863000 L 137.298000,508.557000 L 137.387000,508.373000 L 137.429000,508.187000 L 137.429000,507.985000 L 137.387000,507.800000 L 137.298000,507.615000 L 136.774000,506.698000 L 136.315000,505.757000 L 135.886000,504.798000 L 135.529000,503.810000 L 135.214000,502.809000 L 134.970000,501.797000 L 134.773000,500.766000 L 134.630000,499.724000 L 134.541000,498.682000 L 134.511000,497.621000 L 134.529000,496.734000 L 134.612000,495.865000 L 134.743000,494.977000 L 134.928000,494.119000 L 135.155000,493.263000 L 135.441000,492.434000 L 135.774000,491.607000 L 136.144000,490.803000 L 136.573000,490.034000 L 136.674000,489.933000 L 136.805000,489.861000 L 136.942000,489.861000 L 137.073000,489.915000 L 137.490000,490.177000 L 137.919000,490.373000 L 138.372000,490.534000 L 138.830000,490.647000 L 139.319000,490.689000 L 139.790000,490.689000 L 140.260000,490.635000 L 140.730000,490.533000 L 141.177000,490.372000 L 141.618000,490.158000 L 142.017000,489.914000 L 142.392000,489.616000 L 142.732000,489.270000 L 143.036000,488.901000 L 143.292000,488.503000 L 143.495000,488.074000 L 143.668000,487.615000 L 143.763000,487.157000 L 143.823000,486.686000 L 143.823000,486.203000 L 143.781000,485.727000 L 143.680000,485.256000 L 143.519000,484.798000 L 143.322000,484.368000 L 143.280000,484.225000 L 143.292000,484.082000 L 143.364000,483.968000 L 143.495000,483.885000 L 144.323000,483.540000 L 145.181000,483.254000 L 146.050000,483.027000 L 146.938000,482.837000 L 147.837000,482.712000 L 148.736000,482.641000 L 149.641000,482.611000 L 150.540000,482.653000 L 151.439000,482.742000 L 152.327000,482.886000 L 153.215000,483.071000 L 154.085000,483.327000 L 154.930000,483.631000 L 155.770000,483.970000 L 156.574000,484.369000 L 157.360000,484.828000 L 158.116000,485.316000 L 158.843000,485.858000 L 159.534000,486.442000 L 160.189000,487.061000 L 160.802000,487.728000 L 161.373000,488.419000 L 161.903000,489.145000 L 162.385000,489.914000 L 162.832000,490.706000 L 163.231000,491.516000 L 163.332000,491.689000 L 163.487000,491.844000 L 163.659000,491.963000 L 163.862000,492.034000 L 164.076000,492.057000 L 170.991000,492.057000 L 171.205000,492.087000 L 171.408000,492.158000 L 171.580000,492.277000 L 172.224000,492.831000 L 172.837000,493.433000 L 173.391000,494.077000 L 173.921000,494.762000 L 174.392000,495.477000 L 174.821000,496.221000 L 175.196000,496.995000 L 175.524000,497.781000 L 175.798000,498.592000 L 176.012000,499.425000 L 176.167000,500.265000 L 176.179000,500.450000 L 176.132000,500.650000 Z M 176.132000,500.650000 " fill="#000" fill-opacity="1.000000" stroke-width="1.000000" stroke-linecap="butt" stroke-linejoin="miter" stroke-miterlimit="4.000000" stroke-dasharray="" stroke-dashoffset="0.000000" stroke="none"></path>
    <path d="M 204.034000,494.992000 L 203.861000,495.832000 L 203.647000,496.660000 L 203.379000,497.475000 L 203.051000,498.261000 L 202.664000,499.035000 L 202.235000,499.780000 L 201.764000,500.494000 L 201.234000,501.161000 L 200.662000,501.805000 L 200.060000,502.407000 L 199.405000,502.978000 L 199.233000,503.091000 L 199.030000,503.151000 L 198.827000,503.181000 L 192.925000,503.181000 L 192.740000,503.162000 L 192.555000,503.109000 L 192.382000,503.007000 L 192.239000,502.875000 L 192.126000,502.721000 L 191.584000,501.792000 L 191.471000,501.637000 L 191.322000,501.506000 L 191.155000,501.404000 L 190.983000,501.350000 L 190.780000,501.321000 L 183.818000,501.321000 L 183.603000,501.303000 L 183.407000,501.231000 L 183.234000,501.119000 L 182.591000,500.564000 L 181.977000,499.945000 L 181.406000,499.320000 L 180.888000,498.634000 L 180.406000,497.920000 L 179.977000,497.175000 L 179.602000,496.401000 L 179.274000,495.616000 L 178.988000,494.800000 L 178.774000,493.972000 L 178.619000,493.126000 L 178.607000,492.930000 L 178.631000,492.727000 L 178.702000,492.543000 L 178.821000,492.388000 L 178.976000,492.245000 L 179.149000,492.143000 L 179.334000,492.083000 L 179.531000,492.053000 L 188.637000,492.053000 L 188.839000,492.072000 L 189.012000,492.143000 L 189.179000,492.226000 L 189.328000,492.357000 L 189.441000,492.512000 L 189.983000,493.441000 L 190.096000,493.602000 L 190.239000,493.727000 L 190.412000,493.829000 L 190.597000,493.889000 L 190.782000,493.918000 L 203.116000,493.918000 L 203.319000,493.931000 L 203.504000,494.002000 L 203.677000,494.103000 L 203.820000,494.247000 L 203.933000,494.401000 L 204.004000,494.586000 L 204.034000,494.788000 L 204.034000,494.992000 Z M 204.034000,494.992000 " fill="#000" fill-opacity="1.000000" stroke-width="1.000000" stroke-linecap="butt" stroke-linejoin="miter" stroke-miterlimit="4.000000" stroke-dasharray="" stroke-dashoffset="0.000000" stroke="none"></path>
    <path d="M 334.433000,424.406000 L 334.462000,424.192000 L 334.533000,423.995000 L 334.635000,423.822000 L 334.789000,423.679000 L 334.962000,423.566000 L 335.164000,423.495000 L 335.361000,423.477000 L 349.583000,423.477000 L 349.798000,423.495000 L 349.983000,423.566000 L 350.173000,423.679000 L 350.316000,423.822000 L 350.430000,423.995000 L 350.500000,424.192000 L 350.513000,424.406000 L 350.513000,441.505000 L 350.483000,441.720000 L 350.411000,441.934000 L 350.287000,442.119000 L 350.133000,442.262000 L 349.930000,442.364000 L 349.715000,442.418000 L 349.501000,442.437000 L 348.399000,442.293000 L 347.315000,442.091000 L 346.225000,441.835000 L 345.170000,441.519000 L 344.128000,441.162000 L 343.098000,440.733000 L 342.097000,440.262000 L 341.126000,439.732000 L 340.180000,439.149000 L 339.281000,438.518000 L 338.393000,437.844000 L 337.547000,437.130000 L 336.749000,436.361000 L 335.992000,435.556000 L 335.278000,434.716000 L 334.604000,433.829000 L 334.521000,433.656000 L 334.461000,433.471000 L 334.432000,433.286000 L 334.432000,424.406000 L 334.433000,424.406000 Z M 334.433000,424.406000 " fill="#000" fill-opacity="1.000000" stroke-width="1.000000" stroke-linecap="butt" stroke-linejoin="miter" stroke-miterlimit="4.000000" stroke-dasharray="" stroke-dashoffset="0.000000" stroke="none"></path>
    <path d="M 231.906000,500.447000 L 231.876000,500.650000 L 231.804000,500.835000 L 231.691000,501.008000 L 231.548000,501.139000 L 231.376000,501.252000 L 231.191000,501.306000 L 230.988000,501.324000 L 218.654000,501.324000 L 218.469000,501.353000 L 218.284000,501.407000 L 218.112000,501.509000 L 217.969000,501.640000 L 217.856000,501.795000 L 217.314000,502.724000 L 217.201000,502.878000 L 217.052000,503.010000 L 216.885000,503.112000 L 216.712000,503.165000 L 216.509000,503.184000 L 207.403000,503.184000 L 207.207000,503.165000 L 207.022000,503.094000 L 206.849000,502.998000 L 206.694000,502.855000 L 206.575000,502.695000 L 206.503000,502.509000 L 206.479000,502.307000 L 206.491000,502.111000 L 206.646000,501.265000 L 206.860000,500.437000 L 207.146000,499.622000 L 207.473000,498.835000 L 207.848000,498.067000 L 208.277000,497.322000 L 208.759000,496.608000 L 209.277000,495.934000 L 209.849000,495.291000 L 210.462000,494.689000 L 211.106000,494.117000 L 211.278000,494.005000 L 211.475000,493.934000 L 211.689000,493.921000 L 218.651000,493.921000 L 218.854000,493.892000 L 219.027000,493.832000 L 219.194000,493.730000 L 219.343000,493.605000 L 219.456000,493.444000 L 219.998000,492.515000 L 220.111000,492.360000 L 220.254000,492.229000 L 220.427000,492.146000 L 220.612000,492.075000 L 220.797000,492.056000 L 226.699000,492.056000 L 226.901000,492.086000 L 227.104000,492.157000 L 227.277000,492.276000 L 227.932000,492.830000 L 228.534000,493.432000 L 229.106000,494.076000 L 229.636000,494.761000 L 230.106000,495.464000 L 230.535000,496.208000 L 230.922000,496.977000 L 231.250000,497.781000 L 231.518000,498.579000 L 231.732000,499.407000 L 231.905000,500.253000 L 231.905000,500.447000 L 231.906000,500.447000 Z M 231.906000,500.447000 " fill="#000" fill-opacity="1.000000" stroke-width="1.000000" stroke-linecap="butt" stroke-linejoin="miter" stroke-miterlimit="4.000000" stroke-dasharray="" stroke-dashoffset="0.000000" stroke="none"></path>
    <path d="M 259.778000,494.992000 L 259.606000,495.832000 L 259.391000,496.660000 L 259.123000,497.475000 L 258.795000,498.261000 L 258.408000,499.035000 L 257.979000,499.780000 L 257.508000,500.494000 L 256.978000,501.161000 L 256.406000,501.805000 L 255.804000,502.407000 L 255.149000,502.978000 L 254.977000,503.091000 L 254.774000,503.151000 L 254.572000,503.181000 L 248.670000,503.181000 L 248.486000,503.162000 L 248.301000,503.109000 L 248.128000,503.007000 L 247.985000,502.875000 L 247.872000,502.721000 L 247.330000,501.792000 L 247.217000,501.637000 L 247.069000,501.506000 L 246.902000,501.404000 L 246.729000,501.350000 L 246.527000,501.321000 L 239.565000,501.321000 L 239.350000,501.303000 L 239.154000,501.231000 L 238.981000,501.119000 L 238.338000,500.564000 L 237.724000,499.945000 L 237.152000,499.320000 L 236.634000,498.634000 L 236.152000,497.920000 L 235.723000,497.175000 L 235.348000,496.401000 L 235.020000,495.616000 L 234.734000,494.800000 L 234.520000,493.972000 L 234.365000,493.126000 L 234.353000,492.930000 L 234.376000,492.727000 L 234.448000,492.543000 L 234.567000,492.388000 L 234.722000,492.245000 L 234.895000,492.143000 L 235.080000,492.083000 L 235.277000,492.053000 L 244.383000,492.053000 L 244.585000,492.072000 L 244.758000,492.143000 L 244.925000,492.226000 L 245.074000,492.357000 L 245.187000,492.512000 L 245.729000,493.441000 L 245.842000,493.602000 L 245.985000,493.727000 L 246.158000,493.829000 L 246.343000,493.889000 L 246.528000,493.918000 L 258.862000,493.918000 L 259.065000,493.931000 L 259.250000,494.002000 L 259.423000,494.103000 L 259.566000,494.247000 L 259.679000,494.401000 L 259.750000,494.586000 L 259.780000,494.788000 L 259.780000,494.992000 L 259.778000,494.992000 Z M 259.778000,494.992000 " fill="#000" fill-opacity="1.000000" stroke-width="1.000000" stroke-linecap="butt" stroke-linejoin="miter" stroke-miterlimit="4.000000" stroke-dasharray="" stroke-dashoffset="0.000000" stroke="none"></path>
    <path d="M 287.651000,500.447000 L 287.621000,500.650000 L 287.549000,500.835000 L 287.436000,501.008000 L 287.293000,501.139000 L 287.120000,501.252000 L 286.935000,501.306000 L 286.732000,501.324000 L 274.398000,501.324000 L 274.213000,501.353000 L 274.028000,501.407000 L 273.855000,501.509000 L 273.712000,501.640000 L 273.599000,501.795000 L 273.057000,502.724000 L 272.944000,502.878000 L 272.795000,503.010000 L 272.628000,503.112000 L 272.456000,503.165000 L 272.253000,503.184000 L 263.147000,503.184000 L 262.950000,503.165000 L 262.766000,503.094000 L 262.593000,502.998000 L 262.438000,502.855000 L 262.319000,502.695000 L 262.247000,502.509000 L 262.223000,502.307000 L 262.235000,502.111000 L 262.390000,501.265000 L 262.604000,500.437000 L 262.890000,499.622000 L 263.217000,498.835000 L 263.592000,498.067000 L 264.021000,497.322000 L 264.503000,496.608000 L 265.021000,495.934000 L 265.593000,495.291000 L 266.206000,494.689000 L 266.849000,494.117000 L 267.022000,494.005000 L 267.219000,493.934000 L 267.433000,493.921000 L 274.395000,493.921000 L 274.598000,493.892000 L 274.770000,493.832000 L 274.937000,493.730000 L 275.086000,493.605000 L 275.199000,493.444000 L 275.741000,492.515000 L 275.854000,492.360000 L 275.997000,492.229000 L 276.170000,492.146000 L 276.355000,492.075000 L 276.540000,492.056000 L 282.442000,492.056000 L 282.644000,492.086000 L 282.847000,492.157000 L 283.020000,492.276000 L 283.675000,492.830000 L 284.277000,493.432000 L 284.849000,494.076000 L 285.379000,494.761000 L 285.849000,495.464000 L 286.278000,496.208000 L 286.665000,496.977000 L 286.993000,497.781000 L 287.261000,498.579000 L 287.475000,499.407000 L 287.648000,500.253000 L 287.648000,500.447000 L 287.651000,500.447000 Z M 287.651000,500.447000 " fill="#000" fill-opacity="1.000000" stroke-width="1.000000" stroke-linecap="butt" stroke-linejoin="miter" stroke-miterlimit="4.000000" stroke-dasharray="" stroke-dashoffset="0.000000" stroke="none"></path>
    <path d="M 336.605000,565.084000 L 336.576000,565.286000 L 336.493000,565.482000 L 336.463000,565.512000 L 318.036000,554.893000 L 314.296000,561.397000 L 332.717000,572.015000 L 332.705000,572.057000 L 332.574000,572.230000 L 332.419000,572.361000 L 332.234000,572.457000 L 332.032000,572.517000 L 331.829000,572.517000 L 331.615000,572.475000 L 331.430000,572.404000 L 329.744000,571.433000 L 329.548000,571.331000 L 329.333000,571.302000 L 329.101000,571.320000 L 328.886000,571.385000 L 328.702000,571.504000 L 327.844000,572.148000 L 326.945000,572.731000 L 326.016000,573.273000 L 325.070000,573.773000 L 324.087000,574.203000 L 323.068000,574.590000 L 322.056000,574.905000 L 321.013000,575.179000 L 319.953000,575.394000 L 318.892000,575.537000 L 317.821000,575.620000 L 316.749000,575.650000 L 315.867000,575.631000 L 314.980000,575.548000 L 314.111000,575.417000 L 313.235000,575.232000 L 312.378000,575.005000 L 311.538000,574.719000 L 310.722000,574.386000 L 309.918000,574.005000 L 309.131000,573.575000 L 308.387000,573.104000 L 307.678000,572.586000 L 306.975000,572.044000 L 306.314000,571.442000 L 306.159000,571.317000 L 305.987000,571.228000 L 305.790000,571.186000 L 305.587000,571.186000 L 305.402000,571.228000 L 305.217000,571.299000 L 303.871000,572.085000 L 303.728000,572.126000 L 303.603000,572.114000 L 303.472000,572.054000 L 303.389000,571.958000 L 301.870000,569.314000 L 301.810000,569.182000 L 301.828000,569.051000 L 301.888000,568.926000 L 302.001000,568.837000 L 302.841000,568.337000 L 303.001000,568.224000 L 303.145000,568.080000 L 303.228000,567.908000 L 303.288000,567.723000 L 303.311000,567.521000 L 303.288000,567.324000 L 303.216000,567.139000 L 302.841000,566.311000 L 302.531000,565.454000 L 302.257000,564.579000 L 302.054000,563.680000 L 301.887000,562.781000 L 301.785000,561.882000 L 301.738000,560.965000 L 301.738000,560.047000 L 301.809000,559.137000 L 301.928000,558.237000 L 302.101000,557.333000 L 302.327000,556.451000 L 302.613000,555.594000 L 302.941000,554.737000 L 303.328000,553.903000 L 303.768000,553.104000 L 304.245000,552.331000 L 304.787000,551.593000 L 305.358000,550.878000 L 305.972000,550.205000 L 306.627000,549.561000 L 307.312000,548.959000 L 308.044000,548.417000 L 308.800000,547.899000 L 308.961000,547.786000 L 309.074000,547.642000 L 309.157000,547.488000 L 309.217000,547.303000 L 309.241000,547.112000 L 309.241000,543.956000 L 309.259000,543.825000 L 309.330000,543.712000 L 309.443000,543.641000 L 309.574000,543.599000 L 310.032000,543.539000 L 310.503000,543.426000 L 310.944000,543.254000 L 311.373000,543.039000 L 311.760000,542.783000 L 312.130000,542.485000 L 312.458000,542.157000 L 312.762000,541.782000 L 313.006000,541.365000 L 313.203000,540.942000 L 313.364000,540.496000 L 313.477000,540.038000 L 313.519000,539.567000 L 313.519000,539.085000 L 313.477000,538.608000 L 313.364000,538.149000 L 313.203000,537.709000 L 313.006000,537.280000 L 312.762000,536.863000 L 312.458000,536.494000 L 312.130000,536.166000 L 311.760000,535.869000 L 311.373000,535.606000 L 310.944000,535.392000 L 310.503000,535.225000 L 310.032000,535.106000 L 309.574000,535.052000 L 309.443000,535.010000 L 309.330000,534.933000 L 309.259000,534.820000 L 309.241000,534.695000 L 309.241000,528.704000 L 309.270000,528.490000 L 309.342000,528.287000 L 309.473000,528.102000 L 309.628000,527.948000 L 309.831000,527.846000 L 310.045000,527.792000 L 310.259000,527.792000 L 311.361000,527.935000 L 312.445000,528.131000 L 313.517000,528.375000 L 314.589000,528.691000 L 315.631000,529.060000 L 316.650000,529.476000 L 317.651000,529.959000 L 318.622000,530.488000 L 319.562000,531.060000 L 320.480000,531.692000 L 321.367000,532.365000 L 322.195000,533.091000 L 322.993000,533.848000 L 323.767000,534.663000 L 324.482000,535.510000 L 325.137000,536.391000 L 325.238000,536.552000 L 325.299000,536.737000 L 325.322000,536.922000 L 325.322000,538.494000 L 325.340000,538.696000 L 325.411000,538.893000 L 325.513000,539.066000 L 325.638000,539.209000 L 325.811000,539.322000 L 326.728000,539.840000 L 327.616000,540.412000 L 328.456000,541.025000 L 329.271000,541.680000 L 330.057000,542.383000 L 330.801000,543.127000 L 331.498000,543.914000 L 332.142000,544.729000 L 332.761000,545.586000 L 333.315000,546.467000 L 333.834000,547.384000 L 334.304000,548.325000 L 334.703000,549.296000 L 335.060000,550.284000 L 335.358000,551.284000 L 335.614000,552.315000 L 335.804000,553.345000 L 335.948000,554.387000 L 336.019000,555.429000 L 336.042000,556.490000 L 336.000000,557.532000 L 335.917000,558.574000 L 335.762000,559.616000 L 335.560000,560.647000 L 335.286000,561.666000 L 334.971000,562.666000 L 334.930000,562.881000 L 334.930000,563.095000 L 334.990000,563.291000 L 335.091000,563.477000 L 335.217000,563.649000 L 335.389000,563.780000 L 336.146000,564.209000 L 336.319000,564.334000 L 336.450000,564.495000 L 336.545000,564.668000 L 336.605000,564.864000 L 336.605000,565.084000 Z M 336.605000,565.084000 " fill="#000" fill-opacity="1.000000" stroke-width="1.000000" stroke-linecap="butt" stroke-linejoin="miter" stroke-miterlimit="4.000000" stroke-dasharray="" stroke-dashoffset="0.000000" stroke="none"></path>
    <path d="M 369.124000,487.488000 L 369.094000,487.673000 L 369.023000,487.858000 L 368.910000,488.031000 L 368.766000,488.174000 L 368.593000,488.276000 L 368.409000,488.330000 L 368.206000,488.359000 L 362.680000,488.359000 L 362.465000,488.372000 L 362.263000,488.461000 L 362.078000,488.574000 L 361.935000,488.728000 L 361.821000,488.919000 L 361.762000,489.115000 L 361.493000,490.544000 L 361.147000,491.962000 L 360.760000,493.361000 L 360.320000,494.749000 L 359.831000,496.106000 L 359.272000,497.446000 L 358.676000,498.781000 L 358.015000,500.067000 L 357.318000,501.336000 L 356.574000,502.580000 L 355.758000,503.796000 L 354.912000,504.969000 L 354.030000,506.124000 L 353.084000,507.227000 L 352.102000,508.298000 L 351.083000,509.328000 L 350.028000,510.329000 L 348.926000,511.269000 L 347.783000,512.168000 L 346.609000,513.025000 L 345.412000,513.841000 L 344.180000,514.615000 L 342.905000,515.329000 L 341.619000,515.985000 L 340.309000,516.597000 L 338.963000,517.169000 L 337.605000,517.669000 L 336.235000,518.128000 L 334.830000,518.526000 L 333.419000,518.872000 L 332.001000,519.170000 L 330.571000,519.402000 L 329.131000,519.575000 L 327.672000,519.700000 L 326.231000,519.760000 L 326.028000,519.789000 L 325.826000,519.861000 L 325.659000,519.973000 L 325.516000,520.117000 L 325.414000,520.290000 L 325.343000,520.486000 L 325.325000,520.688000 L 325.325000,525.846000 L 325.302000,526.060000 L 325.212000,526.263000 L 325.099000,526.447000 L 324.926000,526.602000 L 324.741000,526.704000 L 324.526000,526.764000 L 324.300000,526.764000 L 323.197000,526.620000 L 322.107000,526.436000 L 321.036000,526.173000 L 319.981000,525.863000 L 318.939000,525.488000 L 317.909000,525.071000 L 316.908000,524.589000 L 315.938000,524.059000 L 314.991000,523.488000 L 314.079000,522.862000 L 313.204000,522.189000 L 312.364000,521.457000 L 311.560000,520.701000 L 310.804000,519.885000 L 310.090000,519.045000 L 309.417000,518.170000 L 309.316000,518.003000 L 309.262000,517.813000 L 309.244000,517.628000 L 309.244000,515.514000 L 309.220000,515.299000 L 309.130000,515.084000 L 309.005000,514.900000 L 308.833000,514.756000 L 307.761000,514.000000 L 306.731000,513.195000 L 305.749000,512.355000 L 304.790000,511.480000 L 303.861000,510.551000 L 302.986000,509.580000 L 302.158000,508.579000 L 301.372000,507.537000 L 300.627000,506.465000 L 299.942000,505.363000 L 299.298000,504.231000 L 298.696000,503.076000 L 298.154000,501.890000 L 298.053000,501.700000 L 297.898000,501.546000 L 297.725000,501.421000 L 297.523000,501.349000 L 297.309000,501.320000 L 295.308000,501.320000 L 295.094000,501.302000 L 294.897000,501.230000 L 294.725000,501.118000 L 294.081000,500.563000 L 293.468000,499.944000 L 292.896000,499.319000 L 292.378000,498.633000 L 291.896000,497.919000 L 291.467000,497.174000 L 291.092000,496.400000 L 290.765000,495.615000 L 290.479000,494.799000 L 290.265000,493.971000 L 290.110000,493.125000 L 290.098000,492.929000 L 290.121000,492.726000 L 290.193000,492.542000 L 290.312000,492.387000 L 290.467000,492.244000 L 290.640000,492.142000 L 290.825000,492.082000 L 291.021000,492.052000 L 294.838000,492.052000 L 295.053000,492.029000 L 295.255000,491.958000 L 295.428000,491.839000 L 295.571000,491.702000 L 295.684000,491.511000 L 295.755000,491.315000 L 295.767000,491.101000 L 295.755000,489.814000 L 295.797000,488.528000 L 295.899000,487.242000 L 296.054000,485.955000 L 296.268000,484.681000 L 296.542000,483.424000 L 296.870000,482.180000 L 297.239000,480.935000 L 297.668000,479.720000 L 298.156000,478.524000 L 298.686000,477.350000 L 299.270000,476.206000 L 299.913000,475.074000 L 300.604000,473.991000 L 301.331000,472.919000 L 302.105000,471.888000 L 302.933000,470.907000 L 303.790000,469.947000 L 304.689000,469.018000 L 305.630000,468.143000 L 306.618000,467.303000 L 307.631000,466.517000 L 308.691000,465.761000 L 309.763000,465.058000 L 310.877000,464.396000 L 312.021000,463.801000 L 313.176000,463.241000 L 314.367000,462.740000 L 315.582000,462.282000 L 316.809000,461.884000 L 318.054000,461.544000 L 319.310000,461.258000 L 320.567000,461.026000 L 321.853000,460.841000 L 323.140000,460.710000 L 324.426000,460.656000 L 324.628000,460.627000 L 324.813000,460.555000 L 324.986000,460.443000 L 325.130000,460.299000 L 325.231000,460.109000 L 325.303000,459.924000 L 325.326000,459.727000 L 325.326000,458.066000 L 326.314000,458.066000 L 327.285000,458.126000 L 328.273000,458.228000 L 329.244000,458.382000 L 330.204000,458.584000 L 331.162000,458.841000 L 332.092000,459.156000 L 333.003000,459.513000 L 333.902000,459.924000 L 333.074000,459.953000 L 332.246000,460.024000 L 331.431000,460.168000 L 330.620000,460.353000 L 329.828000,460.597000 L 329.042000,460.883000 L 328.304000,461.228000 L 327.560000,461.615000 L 326.857000,462.056000 L 326.184000,462.544000 L 325.540000,463.068000 L 324.945000,463.628000 L 324.373000,464.241000 L 323.843000,464.873000 L 323.355000,465.558000 L 322.926000,466.261000 L 322.527000,466.988000 L 322.182000,467.744000 L 321.896000,468.518000 L 321.658000,469.316000 L 321.468000,470.121000 L 321.343000,470.948000 L 321.253000,471.764000 L 321.230000,472.591000 L 321.253000,473.419000 L 321.343000,474.247000 L 321.468000,475.062000 L 321.658000,475.878000 L 321.896000,476.664000 L 322.182000,477.450000 L 322.527000,478.194000 L 322.926000,478.932000 L 323.355000,479.635000 L 323.843000,480.308000 L 324.373000,480.952000 L 324.945000,481.548000 L 325.540000,482.125000 L 326.184000,482.649000 L 326.857000,483.137000 L 327.560000,483.566000 L 328.287000,483.964000 L 329.043000,484.310000 L 329.829000,484.596000 L 330.621000,484.840000 L 331.432000,485.025000 L 332.247000,485.150000 L 333.075000,485.240000 L 333.903000,485.269000 L 334.737000,485.240000 L 335.552000,485.150000 L 336.379000,485.025000 L 337.178000,484.840000 L 337.976000,484.596000 L 338.750000,484.310000 L 339.506000,483.964000 L 340.239000,483.566000 L 340.935000,483.137000 L 341.608000,482.649000 L 342.252000,482.125000 L 342.865000,481.548000 L 343.425000,480.952000 L 343.955000,480.308000 L 344.437000,479.635000 L 344.883000,478.932000 L 345.265000,478.205000 L 345.610000,477.449000 L 345.896000,476.663000 L 346.140000,475.877000 L 346.325000,475.061000 L 346.469000,474.246000 L 346.540000,473.418000 L 346.569000,472.590000 L 346.540000,471.644000 L 346.469000,470.715000 L 346.325000,469.774000 L 346.123000,468.856000 L 345.885000,467.946000 L 345.581000,467.058000 L 345.241000,466.170000 L 344.824000,465.330000 L 344.384000,464.497000 L 343.824000,463.597000 L 343.222000,462.729000 L 342.578000,461.900000 L 341.882000,461.096000 L 341.150000,460.322000 L 340.393000,459.614000 L 339.578000,458.923000 L 338.750000,458.279000 L 337.880000,457.684000 L 336.975000,457.136000 L 336.004000,456.594000 L 335.004000,456.123000 L 333.991000,455.694000 L 332.949000,455.306000 L 331.888000,454.979000 L 330.817000,454.705000 L 329.733000,454.491000 L 328.630000,454.324000 L 327.528000,454.223000 L 326.426000,454.162000 L 325.324000,454.162000 L 325.324000,452.549000 L 325.342000,452.346000 L 325.396000,452.162000 L 325.498000,451.989000 L 325.629000,451.845000 L 325.783000,451.732000 L 333.847000,447.086000 L 334.049000,446.985000 L 334.204000,446.830000 L 334.329000,446.657000 L 334.400000,446.443000 L 334.430000,446.228000 L 334.430000,444.371000 L 334.459000,444.156000 L 334.530000,443.941000 L 334.661000,443.769000 L 334.828000,443.614000 L 335.018000,443.512000 L 335.233000,443.458000 L 335.447000,443.458000 L 336.543000,443.602000 L 337.646000,443.787000 L 338.717000,444.043000 L 339.778000,444.359000 L 340.820000,444.727000 L 341.850000,445.144000 L 342.851000,445.626000 L 343.822000,446.156000 L 344.769000,446.728000 L 345.679000,447.359000 L 346.549000,448.032000 L 347.395000,448.759000 L 348.199000,449.516000 L 348.956000,450.331000 L 349.671000,451.177000 L 350.344000,452.046000 L 350.439000,452.219000 L 350.499000,452.405000 L 350.512000,452.589000 L 350.512000,455.305000 L 350.530000,455.491000 L 350.584000,455.681000 L 350.686000,455.835000 L 350.798000,455.979000 L 351.817000,456.979000 L 352.770000,458.010000 L 353.699000,459.081000 L 354.587000,460.183000 L 355.433000,461.309000 L 356.231000,462.482000 L 356.994000,463.668000 L 357.690000,464.900000 L 358.363000,466.157000 L 358.965000,467.426000 L 359.537000,468.712000 L 360.049000,470.046000 L 360.508000,471.374000 L 360.919000,472.731000 L 361.282000,474.101000 L 361.580000,475.478000 L 361.836000,476.859000 L 362.038000,478.265000 L 362.092000,478.491000 L 362.194000,478.676000 L 362.337000,478.849000 L 362.522000,478.980000 L 362.737000,479.052000 L 362.951000,479.075000 L 363.922000,479.075000 L 364.125000,479.105000 L 364.327000,479.175000 L 364.500000,479.288000 L 365.155000,479.849000 L 365.757000,480.451000 L 366.328000,481.094000 L 366.858000,481.779000 L 367.329000,482.494000 L 367.758000,483.239000 L 368.145000,483.995000 L 368.472000,484.794000 L 368.741000,485.609000 L 368.956000,486.437000 L 369.129000,487.283000 L 369.129000,487.488000 L 369.124000,487.488000 Z M 369.124000,487.488000 " fill="#000" fill-opacity="1.000000" stroke-width="1.000000" stroke-linecap="butt" stroke-linejoin="miter" stroke-miterlimit="4.000000" stroke-dasharray="" stroke-dashoffset="0.000000" stroke="none"></path>
    <path d="M 394.852000,478.311000 L 394.680000,479.151000 L 394.465000,479.985000 L 394.196000,480.783000 L 393.869000,481.581000 L 393.481000,482.355000 L 393.052000,483.099000 L 392.582000,483.814000 L 392.052000,484.487000 L 391.481000,485.131000 L 390.878000,485.727000 L 390.224000,486.298000 L 390.051000,486.400000 L 389.848000,486.471000 L 389.646000,486.500000 L 383.744000,486.500000 L 383.559000,486.513000 L 383.374000,486.584000 L 383.201000,486.673000 L 383.058000,486.798000 L 382.945000,486.959000 L 382.403000,487.888000 L 382.290000,488.043000 L 382.142000,488.174000 L 381.975000,488.276000 L 381.802000,488.330000 L 381.600000,488.359000 L 376.782000,488.359000 L 376.568000,488.330000 L 376.371000,488.259000 L 376.199000,488.146000 L 375.555000,487.585000 L 374.942000,486.990000 L 374.370000,486.346000 L 373.852000,485.655000 L 373.370000,484.940000 L 372.941000,484.203000 L 372.565000,483.440000 L 372.238000,482.642000 L 371.952000,481.826000 L 371.738000,480.999000 L 371.583000,480.153000 L 371.571000,479.956000 L 371.594000,479.771000 L 371.665000,479.581000 L 371.784000,479.408000 L 371.939000,479.271000 L 372.112000,479.169000 L 372.297000,479.110000 L 372.493000,479.080000 L 383.743000,479.080000 L 383.946000,479.068000 L 384.119000,479.008000 L 384.286000,478.912000 L 384.434000,478.781000 L 384.547000,478.626000 L 385.089000,477.697000 L 385.202000,477.536000 L 385.345000,477.411000 L 385.518000,477.309000 L 385.703000,477.249000 L 385.888000,477.237000 L 393.934000,477.237000 L 394.136000,477.249000 L 394.321000,477.321000 L 394.494000,477.423000 L 394.638000,477.554000 L 394.750000,477.721000 L 394.822000,477.910000 L 394.851000,478.107000 L 394.851000,478.311000 L 394.852000,478.311000 Z M 394.852000,478.311000 " fill="#000" fill-opacity="1.000000" stroke-width="1.000000" stroke-linecap="butt" stroke-linejoin="miter" stroke-miterlimit="4.000000" stroke-dasharray="" stroke-dashoffset="0.000000" stroke="none"></path>
    <path d="M 420.580000,487.488000 L 420.550000,487.673000 L 420.479000,487.858000 L 420.367000,488.031000 L 420.223000,488.174000 L 420.050000,488.276000 L 419.865000,488.330000 L 419.662000,488.359000 L 411.617000,488.359000 L 411.432000,488.330000 L 411.246000,488.276000 L 411.073000,488.174000 L 410.931000,488.043000 L 410.817000,487.888000 L 410.275000,486.959000 L 410.163000,486.798000 L 410.014000,486.673000 L 409.847000,486.584000 L 409.675000,486.513000 L 409.472000,486.500000 L 398.222000,486.500000 L 398.025000,486.471000 L 397.841000,486.417000 L 397.668000,486.316000 L 397.513000,486.172000 L 397.394000,486.012000 L 397.323000,485.826000 L 397.300000,485.624000 L 397.312000,485.428000 L 397.467000,484.582000 L 397.681000,483.754000 L 397.967000,482.939000 L 398.294000,482.153000 L 398.669000,481.384000 L 399.099000,480.639000 L 399.580000,479.924000 L 400.099000,479.251000 L 400.670000,478.608000 L 401.284000,477.994000 L 401.927000,477.435000 L 402.100000,477.322000 L 402.297000,477.250000 L 402.511000,477.238000 L 407.328000,477.238000 L 407.531000,477.250000 L 407.704000,477.310000 L 407.871000,477.412000 L 408.019000,477.537000 L 408.132000,477.698000 L 408.674000,478.627000 L 408.787000,478.782000 L 408.930000,478.913000 L 409.103000,479.009000 L 409.288000,479.069000 L 409.473000,479.081000 L 415.375000,479.081000 L 415.577000,479.111000 L 415.780000,479.181000 L 415.952000,479.294000 L 416.607000,479.855000 L 417.209000,480.457000 L 417.781000,481.100000 L 418.310000,481.785000 L 418.781000,482.500000 L 419.210000,483.245000 L 419.598000,484.001000 L 419.925000,484.800000 L 420.194000,485.615000 L 420.408000,486.443000 L 420.581000,487.289000 L 420.581000,487.488000 L 420.580000,487.488000 Z M 420.580000,487.488000 " fill="#000" fill-opacity="1.000000" stroke-width="1.000000" stroke-linecap="butt" stroke-linejoin="miter" stroke-miterlimit="4.000000" stroke-dasharray="" stroke-dashoffset="0.000000" stroke="none"></path>
    <path d="M 446.309000,478.311000 L 446.136000,479.151000 L 445.922000,479.985000 L 445.653000,480.783000 L 445.326000,481.581000 L 444.938000,482.355000 L 444.509000,483.099000 L 444.038000,483.814000 L 443.508000,484.487000 L 442.937000,485.131000 L 442.335000,485.727000 L 441.680000,486.298000 L 441.507000,486.400000 L 441.305000,486.471000 L 441.102000,486.500000 L 435.201000,486.500000 L 435.016000,486.513000 L 434.831000,486.584000 L 434.658000,486.673000 L 434.515000,486.798000 L 434.401000,486.959000 L 433.860000,487.888000 L 433.747000,488.043000 L 433.598000,488.174000 L 433.431000,488.276000 L 433.259000,488.330000 L 433.056000,488.359000 L 428.239000,488.359000 L 428.024000,488.330000 L 427.828000,488.259000 L 427.655000,488.146000 L 427.012000,487.585000 L 426.398000,486.990000 L 425.827000,486.346000 L 425.308000,485.655000 L 424.826000,484.940000 L 424.397000,484.203000 L 424.022000,483.440000 L 423.695000,482.642000 L 423.408000,481.826000 L 423.194000,480.999000 L 423.039000,480.153000 L 423.027000,479.956000 L 423.051000,479.771000 L 423.122000,479.581000 L 423.241000,479.408000 L 423.396000,479.271000 L 423.569000,479.169000 L 423.753000,479.110000 L 423.950000,479.080000 L 435.200000,479.080000 L 435.402000,479.068000 L 435.575000,479.008000 L 435.742000,478.912000 L 435.890000,478.781000 L 436.003000,478.626000 L 436.545000,477.697000 L 436.658000,477.536000 L 436.801000,477.411000 L 436.974000,477.309000 L 437.159000,477.249000 L 437.344000,477.237000 L 445.390000,477.237000 L 445.593000,477.249000 L 445.778000,477.321000 L 445.951000,477.423000 L 446.094000,477.554000 L 446.207000,477.721000 L 446.278000,477.910000 L 446.308000,478.107000 L 446.308000,478.311000 L 446.309000,478.311000 Z M 446.309000,478.311000 " fill="#000" fill-opacity="1.000000" stroke-width="1.000000" stroke-linecap="butt" stroke-linejoin="miter" stroke-miterlimit="4.000000" stroke-dasharray="" stroke-dashoffset="0.000000" stroke="none"></path>
    <path d="M 472.036000,487.488000 L 472.007000,487.673000 L 471.936000,487.858000 L 471.823000,488.031000 L 471.680000,488.174000 L 471.507000,488.276000 L 471.321000,488.330000 L 471.119000,488.359000 L 463.073000,488.359000 L 462.888000,488.330000 L 462.703000,488.276000 L 462.530000,488.174000 L 462.387000,488.043000 L 462.274000,487.888000 L 461.732000,486.959000 L 461.619000,486.798000 L 461.470000,486.673000 L 461.304000,486.584000 L 461.131000,486.513000 L 460.928000,486.500000 L 449.678000,486.500000 L 449.482000,486.471000 L 449.297000,486.417000 L 449.124000,486.316000 L 448.969000,486.172000 L 448.851000,486.012000 L 448.780000,485.826000 L 448.756000,485.624000 L 448.768000,485.428000 L 448.923000,484.582000 L 449.137000,483.754000 L 449.423000,482.939000 L 449.751000,482.153000 L 450.126000,481.384000 L 450.555000,480.639000 L 451.037000,479.924000 L 451.556000,479.251000 L 452.127000,478.608000 L 452.740000,477.994000 L 453.384000,477.435000 L 453.556000,477.322000 L 453.753000,477.250000 L 453.967000,477.238000 L 458.785000,477.238000 L 458.987000,477.250000 L 459.160000,477.310000 L 459.327000,477.412000 L 459.476000,477.537000 L 459.588000,477.698000 L 460.130000,478.627000 L 460.243000,478.782000 L 460.386000,478.913000 L 460.559000,479.009000 L 460.745000,479.069000 L 460.929000,479.081000 L 466.831000,479.081000 L 467.033000,479.111000 L 467.236000,479.181000 L 467.408000,479.294000 L 468.064000,479.855000 L 468.666000,480.457000 L 469.237000,481.100000 L 469.767000,481.785000 L 470.237000,482.500000 L 470.667000,483.245000 L 471.054000,484.001000 L 471.382000,484.800000 L 471.650000,485.615000 L 471.864000,486.443000 L 472.037000,487.289000 L 472.037000,487.488000 L 472.036000,487.488000 Z M 472.036000,487.488000 " fill="#000" fill-opacity="1.000000" stroke-width="1.000000" stroke-linecap="butt" stroke-linejoin="miter" stroke-miterlimit="4.000000" stroke-dasharray="" stroke-dashoffset="0.000000" stroke="none"></path>
    <path d="M 516.120000,483.671000 L 516.030000,484.552000 L 515.905000,485.428000 L 515.732000,486.297000 L 515.488000,487.143000 L 515.220000,487.989000 L 514.887000,488.817000 L 514.499000,489.603000 L 514.070000,490.389000 L 513.986000,490.490000 L 513.843000,490.544000 L 513.700000,490.544000 L 513.569000,490.490000 L 513.158000,490.246000 L 512.729000,490.032000 L 512.282000,489.889000 L 511.812000,489.776000 L 511.341000,489.728000 L 510.853000,489.728000 L 510.382000,489.776000 L 509.911000,489.889000 L 509.471000,490.043000 L 509.042000,490.245000 L 508.624000,490.502000 L 508.256000,490.800000 L 507.910000,491.146000 L 507.624000,491.514000 L 507.368000,491.919000 L 507.153000,492.348000 L 506.993000,492.789000 L 506.880000,493.260000 L 506.826000,493.730000 L 506.826000,494.218000 L 506.868000,494.689000 L 506.980000,495.160000 L 507.124000,495.606000 L 507.339000,496.046000 L 507.368000,496.177000 L 507.350000,496.321000 L 507.284000,496.446000 L 507.166000,496.536000 L 506.326000,496.875000 L 505.468000,497.161000 L 504.593000,497.393000 L 503.705000,497.578000 L 502.824000,497.709000 L 501.925000,497.780000 L 501.020000,497.804000 L 500.109000,497.762000 L 499.222000,497.679000 L 498.322000,497.535000 L 497.435000,497.333000 L 496.577000,497.089000 L 495.720000,496.791000 L 494.893000,496.434000 L 494.077000,496.036000 L 493.291000,495.589000 L 492.534000,495.088000 L 491.820000,494.565000 L 491.117000,493.975000 L 490.473000,493.350000 L 489.842000,492.689000 L 489.277000,491.993000 L 488.747000,491.260000 L 488.259000,490.504000 L 487.818000,489.718000 L 487.431000,488.902000 L 487.318000,488.717000 L 487.175000,488.574000 L 486.984000,488.443000 L 486.788000,488.372000 L 486.574000,488.359000 L 477.194000,488.359000 L 476.967000,488.330000 L 476.752000,488.247000 L 476.568000,488.103000 L 476.413000,487.930000 L 475.984000,487.215000 L 475.596000,486.471000 L 475.251000,485.702000 L 474.965000,484.916000 L 474.738000,484.112000 L 474.548000,483.284000 L 474.423000,482.456000 L 474.352000,481.629000 L 474.322000,480.783000 L 474.364000,479.937000 L 474.393000,479.752000 L 474.483000,479.567000 L 474.578000,479.406000 L 474.739000,479.269000 L 474.912000,479.167000 L 475.097000,479.108000 L 475.282000,479.078000 L 477.152000,479.078000 L 477.367000,479.066000 L 477.551000,478.994000 L 477.742000,478.881000 L 477.885000,478.738000 L 477.998000,478.565000 L 478.069000,478.363000 L 478.325000,477.362000 L 478.641000,476.380000 L 479.010000,475.421000 L 479.439000,474.462000 L 479.910000,473.552000 L 480.428000,472.646000 L 481.000000,471.789000 L 481.613000,470.949000 L 482.267000,470.145000 L 482.958000,469.388000 L 483.702000,468.661000 L 484.471000,467.976000 L 485.287000,467.332000 L 486.127000,466.742000 L 487.014000,466.189000 L 487.913000,465.682000 L 488.848000,465.229000 L 489.801000,464.831000 L 490.778000,464.474000 L 491.761000,464.170000 L 492.774000,463.926000 L 493.793000,463.741000 L 494.822000,463.597000 L 495.846000,463.514000 L 496.876000,463.496000 L 497.919000,463.526000 L 498.948000,463.615000 L 499.979000,463.758000 L 500.992000,463.943000 L 501.992000,464.200000 L 502.194000,464.229000 L 502.396000,464.211000 L 502.593000,464.157000 L 502.921000,463.925000 L 503.039000,463.771000 L 503.438000,463.085000 L 503.563000,462.925000 L 503.724000,462.781000 L 503.897000,462.686000 L 504.093000,462.638000 L 504.307000,462.626000 L 504.510000,462.667000 L 504.695000,462.756000 L 505.481000,463.197000 L 494.833000,481.605000 L 502.866000,486.251000 L 513.515000,467.843000 L 514.313000,468.301000 L 514.474000,468.426000 L 514.617000,468.587000 L 514.713000,468.772000 L 514.760000,468.974000 L 514.772000,469.171000 L 514.731000,469.385000 L 514.641000,469.570000 L 513.331000,471.845000 L 513.259000,472.030000 L 513.211000,472.215000 L 513.211000,472.418000 L 513.259000,472.603000 L 513.343000,472.788000 L 513.873000,473.705000 L 514.331000,474.646000 L 514.760000,475.604000 L 515.117000,476.593000 L 515.433000,477.593000 L 515.689000,478.623000 L 515.885000,479.648000 L 516.028000,480.689000 L 516.118000,481.738000 L 516.141000,482.792000 L 516.120000,483.671000 Z M 516.120000,483.671000 " fill="#000" fill-opacity="1.000000" stroke-width="1.000000" stroke-linecap="butt" stroke-linejoin="miter" stroke-miterlimit="4.000000" stroke-dasharray="" stroke-dashoffset="0.000000" stroke="none"></path>
</svg>