<?xml version="1.0" encoding="utf-8"?>
<!-- Generator: Adobe Illustrator 13.0.0, SVG Export Plug-In . SVG Version: 6.00 Build 14948)  -->
<!DOCTYPE svg PUBLIC "-//W3C//DTD SVG 1.1//EN" "http://www.w3.org/Graphics/SVG/1.1/DTD/svg11.dtd">
<svg version="1.1" id="Layer_1" xmlns="http://www.w3.org/2000/svg" xmlns:xlink="http://www.w3.org/1999/xlink" x="0px" y="0px"
	 width="16px" height="12px" viewBox="0 0 16 12" enable-background="new 0 0 16 12" xml:space="preserve">
<path fill="#FFFFFF" d="M11.666,3.014c0,0-0.609-0.023,0.602-0.023c1.803,0,1.646,1.899,1.646,1.899s0.023,1.52,0.023,2.047
	c0,0.529-1.164,1.194-1.01,1.038c0.023-0.021,0,1.006,0,1.006l3.008,1.544v1.408h-3.982l0.041-1.979l-1.01-0.995V7.976
	c0,0-0.986-0.409-0.986-1.069c0-0.66,0-1.954,0-1.954S10.059,3.014,11.666,3.014z"/>
<path fill="#FFFFFF" d="M4.388,0.057c0,0,0.882-0.023,2.135-0.023s1.412,1.742,1.412,1.742s0.023,2.661,0.023,3.208
	c0,0.547-1.14,1.14-0.979,0.98c0.023-0.023,0,1.977,0,1.977l3.995,2.006v2.011H0.065l-0.023-1.436L4.04,7.95V5.996
	c0,0-1.022-0.33-1.022-1.012c0-0.684,0-3.208,0-3.208S3.112,0.057,4.388,0.057z"/>
</svg>
